<svg width="372" height="128" viewBox="0 0 372 128" fill="none" xmlns="http://www.w3.org/2000/svg">
<g filter="url(#filter0_f_75_1022)">
<path d="M36.4481 71.0594L36.4724 70.9324L36.5057 70.7857L36.5386 70.6294L36.5708 70.4536L36.622 70.2674L36.6724 70.0619L36.7225 69.8467L36.7823 69.6311L36.8514 69.4055L36.9298 69.1698L37.0176 68.9241L37.1057 68.688L37.2031 68.4419L37.3102 68.1955L37.427 67.9487L37.5535 67.7015L37.69 67.4636L37.8265 67.2258L37.9827 66.9969L38.149 66.7773L38.3154 66.5577L38.5017 66.3568L38.6982 66.1652L38.9047 65.9828L39.1216 65.8195L39.3585 65.6749L39.4722 65.6027L39.5959 65.5399L39.7297 65.4864L39.8537 65.4332L39.9875 65.3797L40.1216 65.3359L40.2657 65.3014L40.4099 65.2669L40.5544 65.2421L40.7086 65.2169L40.8632 65.2014L41.0181 65.1956C41.2602 65.1865 42.4125 65.1432 43.4429 65.7251C42.106 66.0177 41.1831 67.2645 41.2264 68.4168C41.2552 69.1818 41.8227 70.0914 43.1202 70.0427C44.1854 70.0027 45.6927 69.083 45.6199 67.1463C45.5254 64.6286 42.6537 64.0771 41.0172 64.1386C38.2187 64.2438 36.6202 66.8638 36.0903 67.9892C34.7606 64.8585 32.1375 64.4722 30.7528 64.5243C25.7271 64.7131 23.2009 71.0335 23.2464 72.2439C23.2646 72.7281 23.7488 72.7099 23.8553 72.7059C24.2329 72.6917 24.3839 72.5794 24.455 72.15C25.8994 66.9757 29.0495 65.6452 30.6859 65.5837C31.6059 65.5492 33.2971 65.9123 33.4022 68.7108C33.4583 70.202 32.7667 73.4765 31.2386 80.2928C30.5763 83.3141 28.9674 85.4012 26.8371 85.4812C26.5466 85.4922 25.4427 85.5336 24.412 84.9421C25.6137 84.6642 26.6313 83.6174 26.58 82.2521C26.5313 80.9545 25.4616 80.6165 24.7353 80.6438C23.2828 80.6984 22.1193 81.993 22.1775 83.5424C22.2605 85.7502 24.7177 86.6276 26.8287 86.5482C30.0242 86.4282 31.6209 82.9839 31.7653 82.6973C32.4035 84.4576 34.2171 86.2707 37.1028 86.1622C42.08 85.9753 44.6062 79.6548 44.5608 78.4444C44.5426 77.9602 44.1068 77.9766 43.9519 77.9824C43.5258 77.9984 43.4266 78.1961 43.3518 78.5286C41.9576 83.7495 38.7186 85.0349 37.1693 85.0931C35.281 85.164 34.4485 83.6534 34.3866 82.0073C34.3466 80.9421 34.5975 79.8757 35.0601 77.7347L36.4481 71.0594Z" fill="url(#paint0_linear_75_1022)"/>
<path d="M94.4545 67.6681L94.5901 67.663L94.7354 67.6575L94.8709 67.6524L94.9383 67.6402L95.0158 67.6373L95.0832 67.6251L95.1507 67.6128L95.2181 67.6006L95.2855 67.5884L95.3529 67.5762L95.4103 67.5546L95.4773 67.5327L95.5347 67.5111L95.5921 67.4896L95.6491 67.4583L95.7061 67.4271L95.7531 67.3866L95.8004 67.3557L95.847 67.3055L95.8842 67.2653L95.9212 67.2154L95.9394 67.1856L95.9577 67.1558L95.9667 67.1361L95.985 67.1063L95.9935 67.0769L96.0115 67.0375L96.0201 67.0081L96.0283 66.9689L96.0369 66.9395L96.0451 66.9004L96.0437 66.8617L96.0519 66.8226L96.0504 66.7839L96.0586 66.7448L96.0572 66.7061L96.0554 66.6576C96.019 65.6893 95.099 65.7238 94.4309 65.7489L65.5357 66.8345C64.8482 66.8604 63.9476 66.8942 63.984 67.8625C64.0196 68.8115 64.9202 68.7777 65.6464 68.7504L94.4545 67.6681Z" fill="url(#paint1_linear_75_1022)"/>
<path d="M94.8551 77.0398L94.9229 77.0373L94.981 77.0351L95.1162 77.0203L95.2518 77.0152L95.3196 77.0126L95.387 77.0004L95.4544 76.9882L95.5222 76.9856L95.5799 76.9738L95.647 76.9519L95.7144 76.9396L95.7717 76.9181L95.8388 76.8962L95.8962 76.8746L95.9536 76.8531L96.0106 76.8218L96.0579 76.791L96.1049 76.7504L96.1518 76.7099L96.1988 76.6693L96.2357 76.6194L96.2543 76.5994L96.2726 76.5696L96.2912 76.5495L96.3095 76.5197L96.3181 76.4903L96.3364 76.4605L96.345 76.4311L96.3633 76.4013L96.3715 76.3622L96.3801 76.3328L96.3883 76.2937L96.3966 76.2546L96.3951 76.2159L96.4033 76.1768L96.4018 76.138L96.4101 76.0989L96.4083 76.0505L96.4068 76.0118C96.3704 75.0435 95.4505 75.078 94.7339 75.1049L65.9258 76.1873C65.1996 76.2145 64.299 76.2484 64.3354 77.2167C64.3718 78.1851 65.2724 78.1512 65.9599 78.1254L94.8551 77.0398Z" fill="url(#paint2_linear_75_1022)"/>
<path d="M142.691 54.5975L142.749 54.5953L142.798 54.5935L142.904 54.5895L143.02 54.5755L143.078 54.5733L143.136 54.5614L143.194 54.5592L143.252 54.5473L143.3 54.5359L143.358 54.524L143.415 54.5121L143.463 54.5006L143.521 54.4791L143.568 54.4579L143.616 54.4367L143.664 54.4155L143.711 54.3846L143.749 54.3541L143.786 54.3236L143.824 54.2834L143.861 54.2433L143.88 54.2231L143.898 54.2031L143.907 54.1833L143.925 54.1536L143.934 54.1338L143.943 54.1044L143.962 54.0843L143.97 54.0549L143.979 54.0255L143.987 53.9961L143.996 53.9667L143.995 53.9376L144.004 53.9082L144.002 53.8695L144.011 53.8401L144.009 53.8013L144.008 53.7626L144.006 53.7239C143.975 52.8911 143.21 52.9198 142.629 52.9416L122.526 53.6969C121.974 53.7176 121.18 53.7475 121.211 54.5512C121.243 55.4033 122.007 55.3746 122.588 55.3528L142.691 54.5975Z" fill="url(#paint3_linear_75_1022)"/>
<path d="M156.041 39.2886L156.05 39.2785L156.05 39.2689L156.05 39.2592L156.059 39.2588L156.059 39.2491L156.059 39.2395L156.068 39.2197L156.067 39.2003L156.076 39.1806L156.075 39.1612L156.084 39.1415L156.093 39.1218L156.092 39.1024L156.101 39.0827L156.1 39.0536L156.108 39.0145L156.126 38.9654L156.125 38.946L156.134 38.9166L156.133 38.8973L156.142 38.8775L156.141 38.8581L156.15 38.8384L156.15 38.8287L156.149 38.8094L156.149 38.7997L156.158 38.7993L156.158 38.7896L156.158 38.78L156.157 38.7703L156.157 38.7606L156.157 38.7509C156.15 38.5766 156.003 38.2718 155.596 38.2871C154.918 38.3126 152.13 38.6985 151.3 38.7976C151.03 38.8368 150.547 38.8938 150.574 39.6007C150.592 40.0752 151.076 40.057 151.463 40.0424C153.09 39.9813 153.099 40.2137 153.109 40.4945C153.118 40.7172 152.829 42.0759 152.665 42.8676L152.007 46.005C151.731 47.1597 150.168 54.6172 150.107 55.0559C149.974 55.8852 149.99 56.3209 150.005 56.7179C150.133 60.1362 152.373 62.2048 155.172 62.0996L155.166 61.1592C153.52 61.2211 152.526 59.8039 152.45 57.7994C152.404 56.56 152.661 55.406 153.457 51.5555C153.627 50.9091 153.624 50.8316 154.255 50.0709C155.477 48.5414 156.969 47.7386 158.18 47.6932C159.497 47.6437 160.686 48.5881 160.772 50.8734C160.824 52.2581 160.208 55.7237 159.265 57.7277C158.513 59.4044 156.889 61.0945 155.166 61.1592L155.172 62.0996C159.394 61.941 163.705 57.1826 163.518 52.1957C163.369 48.2449 160.575 46.6626 158.251 46.7499C156.498 46.8157 155.044 47.8401 154.07 48.7591L156.041 39.2886Z" fill="url(#paint4_linear_75_1022)"/>
<path d="M180.427 50.067L190.681 49.6817C191.224 49.6614 192.027 49.6312 191.997 48.8178C191.966 47.985 191.191 48.0141 190.62 48.0356L180.365 48.4208L179.983 38.2533C179.96 37.6529 179.928 36.8008 179.096 36.8321C178.273 36.863 178.302 37.6473 178.321 38.1509L178.709 48.483L168.425 48.8694C167.844 48.8912 167.079 48.92 167.111 49.7527C167.141 50.5661 167.935 50.5363 168.487 50.5156L178.771 50.1292L179.145 60.0837L168.861 60.4701C168.28 60.4919 167.515 60.5207 167.546 61.3534C167.577 62.1765 168.371 62.1467 168.923 62.1259L191.118 61.2921C191.66 61.2717 192.464 61.2416 192.433 60.4185C192.401 59.5857 191.627 59.6148 191.055 59.6363L180.801 60.0215L180.427 50.067Z" fill="url(#paint5_linear_75_1022)"/>
<path d="M210.015 60.4561L202.908 47.5739C202.731 47.2508 202.617 47.0514 202.346 47.0616C202.21 47.0667 202.152 47.0689 201.803 47.3438L198.301 49.8803C197.838 50.208 197.845 50.3726 197.849 50.4791C197.856 50.6728 198.031 50.9377 198.34 50.9261C198.476 50.921 198.534 50.9188 198.959 50.6022C199.326 50.3169 200.269 49.593 200.665 49.3066L208.621 63.6212C208.862 64.1067 208.943 64.1812 209.408 64.1638C209.708 64.1525 210.076 64.1386 210.4 63.4768L226.169 31.2622C226.434 30.8159 226.431 30.7481 226.425 30.5738C226.405 30.0412 225.948 29.7578 225.59 29.7712C225.076 29.7905 224.913 30.0973 224.735 30.5112L210.015 60.4561Z" fill="url(#paint6_linear_75_1022)"/>
<path d="M225.822 31.062L349.227 26.4257L349.162 24.6827L225.757 29.319" fill="url(#paint7_linear_75_1022)"/>
<path d="M234.825 36.3286L234.834 36.3186L234.834 36.3089L234.834 36.2992L234.843 36.2892L234.843 36.2795L234.852 36.2597L234.851 36.2404L234.86 36.2207L234.859 36.2013L234.868 36.1816L234.867 36.1622L234.876 36.1425L234.885 36.1227L234.884 36.0937L234.892 36.0546L234.91 36.0054L234.909 35.9861L234.918 35.9567L234.917 35.9373L234.926 35.9175L234.925 35.8982L234.934 35.8785L234.934 35.8688L234.933 35.8494L234.933 35.8397L234.942 35.8394L234.942 35.8297L234.942 35.82L234.941 35.8103L234.941 35.8006L234.941 35.791C234.934 35.6167 234.787 35.3119 234.38 35.3272C233.702 35.3526 230.914 35.7386 230.084 35.8376C229.814 35.8769 229.331 35.9338 229.358 36.6407C229.376 37.1152 229.86 37.097 230.247 37.0824C231.864 37.0217 231.873 37.2541 231.884 37.5349C231.892 37.7576 231.613 39.116 231.449 39.9076L230.791 43.0451C230.515 44.1997 228.952 51.6573 228.891 52.0959C228.758 52.9252 228.774 53.361 228.789 53.758C228.917 57.1762 231.158 59.2448 233.956 59.1397L233.95 58.1993C232.304 58.2611 231.31 56.8439 231.234 54.8395C231.188 53.6 231.445 52.446 232.241 48.5955C232.42 47.9488 232.418 47.8713 233.039 47.111C234.271 45.581 235.754 44.7787 236.964 44.7332C238.281 44.6837 239.461 45.6285 239.546 47.9138C239.598 49.2985 238.992 52.7638 238.049 54.7677C237.297 56.4444 235.673 58.1345 233.95 58.1993L233.956 59.1397C238.178 58.981 242.479 54.223 242.292 49.2361C242.144 45.2853 239.359 43.7026 237.035 43.7899C235.273 43.8561 233.828 44.8801 232.854 45.7991L234.825 36.3286Z" fill="url(#paint8_linear_75_1022)"/>
<path d="M257.392 43.5971L256.375 43.6353C256.325 44.1027 256.138 45.5933 255.76 45.85C255.572 46.0122 253.548 46.0882 253.18 46.102L248.465 46.2792C250.008 45.0382 251.739 43.6252 253.156 42.6023C255.268 41.0199 257.239 39.5398 257.143 36.9834C257.027 33.8944 254.039 32.2999 250.591 32.4295C247.338 32.5517 245.017 34.5298 245.106 36.8926C245.153 38.1417 246.226 38.3147 246.574 38.3016C247.223 38.2773 247.982 37.8124 247.944 36.8247C247.912 35.9629 247.255 35.5027 246.507 35.463C247.134 34.3436 248.51 33.5646 250.137 33.5035C252.461 33.4162 254.47 34.7468 254.559 37.1095C254.635 39.1431 253.299 40.7351 251.498 42.3737L245.799 47.5915C245.565 47.8136 245.555 47.814 245.522 47.98L245.55 48.7063L256.763 48.285L257.392 43.5971Z" fill="url(#paint9_linear_75_1022)"/>
<path d="M287.361 49.1623L287.419 49.1601L287.468 49.1583L287.574 49.1543L287.69 49.1403L287.748 49.1381L287.806 49.1262L287.854 49.1244L287.912 49.1125L287.97 49.1007L288.027 49.0888L288.085 49.0769L288.133 49.0654L288.181 49.0442L288.238 49.0227L288.286 49.0015L288.334 48.9803L288.381 48.9495L288.419 48.919L288.456 48.8884L288.494 48.8482L288.531 48.8081L288.549 48.788L288.558 48.7682L288.577 48.7482L288.586 48.7188L288.604 48.6986L288.613 48.6692L288.622 48.6495L288.64 48.6197L288.649 48.5903L288.657 48.5609L288.656 48.5319L288.665 48.5024L288.673 48.473L288.672 48.4343L288.681 48.4049L288.679 48.3661L288.678 48.3274L288.676 48.2887C288.645 47.4559 287.87 47.485 287.299 47.5065L267.196 48.2617C266.644 48.2825 265.84 48.3127 265.871 49.1164C265.903 49.9685 266.677 49.9394 267.258 49.9176L287.361 49.1623Z" fill="url(#paint10_linear_75_1022)"/>
<path d="M310.282 50.386L310.237 49.1756L306.489 49.3164L305.924 34.2684C305.898 33.5711 305.889 33.3291 305.153 33.3567C304.736 33.3724 304.601 33.3775 304.289 33.8546L293.707 49.7966L293.753 51.007L303.678 50.6341L303.856 49.4153L294.947 49.75L303.392 37.069L303.856 49.4153L303.678 50.6341L303.782 53.4035C303.826 54.5559 303.841 54.9626 301.101 55.0655L300.19 55.0997L300.236 56.3102C301.919 56.1888 304.075 56.0301 305.285 55.9847C306.544 55.9374 308.697 55.9341 310.394 55.9285L310.348 54.7181L309.438 54.7523C306.698 54.8553 306.682 54.4485 306.639 53.2962L306.535 50.5268L310.282 50.386Z" fill="url(#paint11_linear_75_1022)"/>
<path d="M325.567 42.4515L325.496 42.3476L325.424 42.2533L325.343 42.1594L325.262 42.0558L325.181 41.9618L325.1 41.8776L325.009 41.784L324.919 41.7002L324.828 41.6163L324.738 41.5324L324.638 41.4489L324.538 41.3751L324.438 41.3012L324.329 41.2278L324.22 41.164L324.111 41.1002L324.002 41.0364L323.883 40.9827L323.765 40.929L323.646 40.8752L323.528 40.8312L323.401 40.7875L323.273 40.7438L323.146 40.7098L323.009 40.6858L322.872 40.6522L322.736 40.6379L322.599 40.614L322.453 40.6097L322.307 40.5958L322.162 40.5916L322.007 40.5974L322.042 41.5367C324.405 41.4479 325.15 43.98 325.164 44.3576C325.169 44.4932 325.101 44.7382 325.075 44.8361L323.724 51.1997C323.537 52.1667 322.816 52.8532 322.105 53.5393C321.805 53.8027 320.49 54.9479 319.038 55.0024C317.798 55.049 316.555 54.2133 316.465 51.8215C316.397 50.0204 317.226 46.2753 317.96 44.8998C319.398 42.1403 321.103 41.572 322.042 41.5367L322.007 40.5974C317.698 40.7593 313.49 45.6787 313.672 50.5301C313.795 53.803 316.071 56.0545 318.976 55.9454C320.797 55.877 322.374 54.7704 323.671 53.4029C324.406 55.402 326.365 55.6678 327.246 55.6347C328.456 55.5892 329.271 54.8119 329.841 53.7432C330.528 52.3986 330.892 50.4649 330.886 50.3294C330.87 49.8839 330.434 49.9003 330.347 49.9036C329.863 49.9218 329.839 50.0584 329.641 50.9774C329.295 52.6098 328.721 54.6386 327.317 54.6914C326.436 54.7245 326.166 53.988 326.132 53.0777C326.11 52.5064 326.335 51.2664 326.544 50.3858C326.733 49.4672 327.04 48.0787 327.176 47.3269L327.738 44.7361C327.918 43.8469 328.255 42.2439 328.249 42.0793C328.221 41.3336 327.599 41.0273 327.076 41.047C326.495 41.0688 325.726 41.505 325.567 42.4515Z" fill="url(#paint12_linear_75_1022)"/>
<path d="M347.025 41.6163L346.909 41.6401L346.804 41.6634L346.698 41.6965L346.603 41.7389L346.507 41.7813L346.412 41.8236L346.326 41.8656L346.251 41.9169L346.165 41.9686L346.09 42.0297L346.024 42.0806L345.958 42.1413L345.893 42.2116L345.837 42.2719L345.782 42.3418L345.726 42.4021L345.68 42.4717L345.634 42.5413L345.598 42.6203L345.562 42.6895L345.526 42.7587L345.5 42.8373L345.464 42.9162L345.447 42.9847L345.421 43.0633L345.404 43.1318L345.397 43.2096L345.381 43.2878L345.374 43.356L345.367 43.4338L345.37 43.5016L345.372 43.5694C345.406 44.4796 346.126 44.7823 346.736 44.7594C347.472 44.7317 348.633 44.1644 348.572 42.5376C348.486 40.2427 345.828 39.7025 344.017 39.7705C338.943 39.9612 334.431 44.7853 334.607 49.4721C334.716 52.3771 336.852 55.2738 341.074 55.1152C346.777 54.9009 349.315 51.4698 349.297 50.9856C349.289 50.7823 348.975 50.4159 348.704 50.4261C348.51 50.4334 348.435 50.5137 348.174 50.7951C345.657 54.0024 341.707 54.1508 341.097 54.1737C338.676 54.2647 337.529 52.6496 337.45 50.5483C337.414 49.58 337.76 45.8821 339.425 43.4922C340.631 41.779 342.358 40.7735 344.053 40.7098C344.517 40.6924 346.137 40.6897 347.025 41.6163Z" fill="url(#paint13_linear_75_1022)"/>
<path d="M117.782 71.9697L350.068 63.2428L349.993 61.2673L117.708 69.9943" fill="url(#paint14_linear_75_1022)"/>
<path d="M232.136 88.9004L230.993 88.9434C230.925 89.6926 230.651 91.7005 230.228 92.0558C229.974 92.2593 227.378 92.3567 226.904 92.3746L220.687 92.6081C224.114 89.3472 225.26 88.3636 227.224 86.6995C229.647 84.6011 231.893 82.4319 231.772 79.217C231.619 75.1403 227.962 72.7759 223.633 72.9385C219.45 73.0957 216.723 76.1363 216.839 79.235C216.904 80.9586 218.363 81.0784 218.712 81.0653C219.506 81.0355 220.472 80.4173 220.426 79.2069C220.404 78.6066 220.117 77.4343 218.364 77.5001C219.32 75.069 221.587 74.2372 223.175 74.1775C226.555 74.0505 228.406 76.6089 228.509 79.3396C228.619 82.2834 226.615 84.686 225.576 85.9371L217.754 94.2796C217.416 94.5929 217.419 94.6703 217.455 95.6096L231.36 95.0872L232.136 88.9004Z" fill="url(#paint15_linear_75_1022)"/>
<path d="M248.257 81.5455L248.186 81.4415L248.114 81.3375L248.033 81.2436L247.952 81.1497L247.87 81.0558L247.789 80.9618L247.699 80.878L247.608 80.7844L247.518 80.7005L247.428 80.6263L247.328 80.5428L247.228 80.469L247.128 80.3952L247.019 80.3217L246.919 80.2575L246.8 80.1844L246.691 80.1303L246.573 80.0669L246.464 80.0128L246.336 79.9691L246.218 79.9154L246.09 79.8717L245.963 79.8377L245.836 79.8037L245.699 79.7701L245.572 79.7457L245.425 79.7222L245.289 79.7079L245.143 79.694L244.997 79.6898L244.852 79.6855L244.706 79.691L244.742 80.6303C247.095 80.5419 247.849 83.0735 247.864 83.4512C247.869 83.5868 247.8 83.8317 247.774 83.92L246.424 90.2932C246.227 91.2509 245.516 91.9467 244.795 92.6235C244.504 92.8963 243.18 94.0321 241.727 94.0867C240.488 94.1332 239.245 93.3072 239.155 90.9154C239.087 89.1143 239.916 85.3692 240.65 83.9937C242.097 81.2242 243.802 80.6656 244.742 80.6303L244.706 79.691C240.388 79.8532 236.18 84.7726 236.362 89.6239C236.485 92.8969 238.77 95.1384 241.675 95.0292C243.486 94.9612 245.064 93.8547 246.361 92.4871C247.095 94.4959 249.054 94.752 249.935 94.7189C251.146 94.6734 251.961 93.9058 252.531 92.8371C253.218 91.4925 253.591 89.5488 253.586 89.4132C253.569 88.9775 253.124 88.9942 253.037 88.9975C252.553 89.0157 252.529 89.1523 252.33 90.0713C251.984 91.7037 251.411 93.7229 250.007 93.7756C249.125 93.8087 248.856 93.0819 248.821 92.1716C248.8 91.6003 249.025 90.3604 249.234 89.4701C249.432 88.5608 249.729 87.1726 249.866 86.4208L250.437 83.8199C250.608 82.9408 250.945 81.3378 250.939 81.1635C250.911 80.4276 250.298 80.1209 249.766 80.1409C249.194 80.1624 248.416 80.5989 248.257 81.5455Z" fill="url(#paint16_linear_75_1022)"/>
</g>
<defs>
<filter id="filter0_f_75_1022" x="-4.25415" y="-4.52588" width="380.588" height="136.982" filterUnits="userSpaceOnUse" color-interpolation-filters="sRGB">
<feFlood flood-opacity="0" result="BackgroundImageFix"/>
<feBlend mode="normal" in="SourceGraphic" in2="BackgroundImageFix" result="shape"/>
<feGaussianBlur stdDeviation="2.5" result="effect1_foregroundBlur_75_1022"/>
</filter>
<linearGradient id="paint0_linear_75_1022" x1="34.3091" y1="86.2672" x2="33.4884" y2="64.4215" gradientUnits="userSpaceOnUse">
<stop stop-color="#7642CB"/>
<stop offset="1" stop-color="#7642CB" stop-opacity="0"/>
</linearGradient>
<linearGradient id="paint1_linear_75_1022" x1="80.0553" y1="68.2091" x2="79.9833" y2="66.2917" gradientUnits="userSpaceOnUse">
<stop stop-color="#7642CB"/>
<stop offset="1" stop-color="#7642CB" stop-opacity="0"/>
</linearGradient>
<linearGradient id="paint2_linear_75_1022" x1="80.4075" y1="77.5826" x2="80.3347" y2="75.6459" gradientUnits="userSpaceOnUse">
<stop stop-color="#7642CB"/>
<stop offset="1" stop-color="#7642CB" stop-opacity="0"/>
</linearGradient>
<linearGradient id="paint3_linear_75_1022" x1="132.64" y1="54.9751" x2="132.578" y2="53.3193" gradientUnits="userSpaceOnUse">
<stop stop-color="#7642CB"/>
<stop offset="1" stop-color="#7642CB" stop-opacity="0"/>
</linearGradient>
<linearGradient id="paint4_linear_75_1022" x1="157.046" y1="62.0292" x2="156.153" y2="38.2662" gradientUnits="userSpaceOnUse">
<stop stop-color="#7642CB"/>
<stop offset="1" stop-color="#7642CB" stop-opacity="0"/>
</linearGradient>
<linearGradient id="paint5_linear_75_1022" x1="180.021" y1="61.709" x2="179.086" y2="36.8324" gradientUnits="userSpaceOnUse">
<stop stop-color="#7642CB"/>
<stop offset="1" stop-color="#7642CB" stop-opacity="0"/>
</linearGradient>
<linearGradient id="paint6_linear_75_1022" x1="213.02" y1="64.0281" x2="211.752" y2="30.2911" gradientUnits="userSpaceOnUse">
<stop stop-color="#7642CB"/>
<stop offset="1" stop-color="#7642CB" stop-opacity="0"/>
</linearGradient>
<linearGradient id="paint7_linear_75_1022" x1="287.525" y1="28.7438" x2="287.459" y2="27.0008" gradientUnits="userSpaceOnUse">
<stop stop-color="#7642CB"/>
<stop offset="1" stop-color="#7642CB" stop-opacity="0"/>
</linearGradient>
<linearGradient id="paint8_linear_75_1022" x1="235.825" y1="59.0694" x2="234.932" y2="35.3064" gradientUnits="userSpaceOnUse">
<stop stop-color="#7642CB"/>
<stop offset="1" stop-color="#7642CB" stop-opacity="0"/>
</linearGradient>
<linearGradient id="paint9_linear_75_1022" x1="251.558" y1="48.4806" x2="250.955" y2="32.4158" gradientUnits="userSpaceOnUse">
<stop stop-color="#7642CB"/>
<stop offset="1" stop-color="#7642CB" stop-opacity="0"/>
</linearGradient>
<linearGradient id="paint10_linear_75_1022" x1="277.305" y1="49.5401" x2="277.243" y2="47.8843" gradientUnits="userSpaceOnUse">
<stop stop-color="#7642CB"/>
<stop offset="1" stop-color="#7642CB" stop-opacity="0"/>
</linearGradient>
<linearGradient id="paint11_linear_75_1022" x1="302.226" y1="56.2354" x2="301.372" y2="33.4988" gradientUnits="userSpaceOnUse">
<stop stop-color="#7642CB"/>
<stop offset="1" stop-color="#7642CB" stop-opacity="0"/>
</linearGradient>
<linearGradient id="paint12_linear_75_1022" x1="322.482" y1="55.8137" x2="321.91" y2="40.6011" gradientUnits="userSpaceOnUse">
<stop stop-color="#7642CB"/>
<stop offset="1" stop-color="#7642CB" stop-opacity="0"/>
</linearGradient>
<linearGradient id="paint13_linear_75_1022" x1="342.134" y1="55.0754" x2="341.563" y2="39.8628" gradientUnits="userSpaceOnUse">
<stop stop-color="#7642CB"/>
<stop offset="1" stop-color="#7642CB" stop-opacity="0"/>
</linearGradient>
<linearGradient id="paint14_linear_75_1022" x1="233.925" y1="67.6062" x2="233.851" y2="65.6308" gradientUnits="userSpaceOnUse">
<stop stop-color="#7642CB"/>
<stop offset="1" stop-color="#7642CB" stop-opacity="0"/>
</linearGradient>
<linearGradient id="paint15_linear_75_1022" x1="224.911" y1="95.3295" x2="224.069" y2="72.9221" gradientUnits="userSpaceOnUse">
<stop stop-color="#7642CB"/>
<stop offset="1" stop-color="#7642CB" stop-opacity="0"/>
</linearGradient>
<linearGradient id="paint16_linear_75_1022" x1="245.176" y1="94.8977" x2="244.605" y2="79.6948" gradientUnits="userSpaceOnUse">
<stop stop-color="#7642CB"/>
<stop offset="1" stop-color="#7642CB" stop-opacity="0"/>
</linearGradient>
</defs>
</svg>