<svg width="248" height="79" viewBox="0 0 248 79" fill="none" xmlns="http://www.w3.org/2000/svg">
<g filter="url(#filter0_f_75_1021)">
<path d="M5.12168 48.5935L10.2198 5.95321L38.7208 9.36081L37.6685 18.1621L19.3351 15.9702L18.355 24.1678L35.5445 26.223L34.4884 35.0561L17.2989 33.0009L16.353 40.9125L34.6864 43.1045L33.6227 52.0011L5.12168 48.5935Z" fill="url(#paint0_linear_75_1021)"/>
<path d="M62.4886 41.7555L85.8741 44.5515L84.8218 53.3528L61.4363 50.5568L62.4886 41.7555ZM64.2285 27.2031L87.614 29.9991L86.5693 38.7369L63.1838 35.9409L64.2285 27.2031Z" fill="url(#paint1_linear_75_1021)"/>
<path d="M152.759 66.2451L154.939 48.007C155.137 46.3547 154.88 45.0886 154.169 44.2086C153.481 43.31 152.544 42.7898 151.358 42.6479C149.621 42.4403 148.112 43.0226 146.831 44.3948C145.552 45.7459 144.696 48.2325 144.263 51.8547L140.259 51.3761C140.708 47.6268 141.418 44.5641 142.389 42.188C143.363 39.7906 144.529 37.9533 145.884 36.6759C147.243 35.3773 148.72 34.5226 150.316 34.1119C151.936 33.6825 153.614 33.5716 155.351 33.7793C158.02 34.0984 160.13 34.9629 161.68 36.3729C163.251 37.7855 164.313 39.599 164.865 41.8135C165.438 44.0305 165.561 46.5053 165.234 49.2378L163.053 67.4759L152.759 66.2451ZM111.739 61.3407L115.481 30.0436L124.441 31.1149L124.993 35.6606C126.299 33.9045 127.809 32.6885 129.522 32.0125C131.257 31.339 133.078 31.1162 134.984 31.3442C137.674 31.6658 139.795 32.5316 141.345 33.9416C142.916 35.3542 143.978 37.1677 144.53 39.3822C145.081 41.5967 145.194 44.0702 144.867 46.8027L142.686 65.0408L132.455 63.8176L134.636 45.5795C134.833 43.9273 134.577 42.6611 133.865 41.7811C133.157 40.88 132.23 40.361 131.087 40.2243C129.921 40.085 128.813 40.2854 127.76 40.8256C126.707 41.3657 125.796 42.3311 125.028 43.7218C124.284 45.0938 123.769 46.9767 123.483 49.3703L121.906 62.5564L111.739 61.3407Z" fill="url(#paint2_linear_75_1021)"/>
<path d="M169.377 62.2376C169.602 60.3523 170.415 58.8595 171.814 57.7592C173.234 56.6614 174.951 56.2328 176.963 56.4734C178.975 56.714 180.563 57.5377 181.727 58.9444C182.891 60.3512 183.36 61.9972 183.135 63.8825C182.91 65.7677 182.067 67.2461 180.607 68.3177C179.149 69.3681 177.414 69.773 175.402 69.5324C173.389 69.2918 171.821 68.4812 170.697 67.1007C169.594 65.7227 169.154 64.1016 169.377 62.2376Z" fill="url(#paint3_linear_75_1021)"/>
<path d="M201.715 73.1296C198.982 72.8029 196.522 71.8105 194.336 70.1525C192.17 68.4971 190.517 66.3335 189.375 63.6617C188.255 60.9925 187.895 57.9845 188.295 54.6377C188.733 50.9731 189.809 47.9971 191.522 45.7096C193.258 43.4035 195.367 41.7648 197.846 40.7936C200.349 39.8038 202.967 39.4722 205.7 39.7989C208.009 40.075 209.974 40.7075 211.596 41.6963C213.239 42.6878 214.557 43.8873 215.549 45.295C216.541 46.7028 217.221 48.2021 217.589 49.7931C217.979 51.3866 218.086 52.9142 217.912 54.3757L207.755 53.0648C207.716 52.1362 207.444 51.2658 206.94 50.4535C206.459 49.6225 205.657 49.1399 204.534 49.0057C203.645 48.8993 202.77 49.031 201.909 49.4008C201.072 49.752 200.335 50.4373 199.697 51.4568C199.081 52.4789 198.659 53.9431 198.431 55.8495C198.208 57.7136 198.276 59.2149 198.634 60.3534C199.013 61.4945 199.568 62.3343 200.298 62.8729C201.05 63.4139 201.871 63.7377 202.76 63.844C204.201 64.0163 205.204 63.8032 205.77 63.2047C206.359 62.5877 206.714 61.7708 206.836 60.754L217.004 61.9697C216.735 64.215 215.987 66.2526 214.758 68.0823C213.529 69.9121 211.826 71.3091 209.648 72.2734C207.494 73.219 204.85 73.5044 201.715 73.1296Z" fill="url(#paint4_linear_75_1021)"/>
<path d="M223.889 57.1852L224.485 52.1967C224.65 50.8199 224.984 49.6459 225.486 48.6747C226.01 47.706 226.739 46.9123 227.673 46.2934C228.608 45.6533 229.816 45.1639 231.296 44.8252L236.973 43.4413C238.014 43.179 238.789 42.8097 239.297 42.3333C239.805 41.857 240.103 41.2481 240.192 40.5067C240.273 39.8289 240.07 39.1922 239.582 38.5968C239.116 38.004 238.364 37.6455 237.326 37.5214C236.352 37.4049 235.48 37.6014 234.71 38.1109C233.94 38.6205 233.437 39.409 233.202 40.4767L226.434 39.6675C226.654 37.6527 227.316 36.0667 228.421 34.9098C229.529 33.7316 230.903 32.9291 232.544 32.5022C234.206 32.0778 235.969 31.9771 237.833 32.2C239.655 32.4178 241.267 32.9542 242.669 33.8094C244.073 34.6433 245.148 35.7171 245.893 37.0309C246.638 38.3447 246.912 39.8277 246.715 41.4799C246.558 42.7932 246.173 43.9397 245.562 44.9194C244.975 45.8805 244.114 46.7014 242.98 47.3822C241.848 48.0419 240.374 48.5962 238.559 49.0452L232.882 50.4291C232.108 50.6158 231.567 50.8304 231.259 51.0729C230.953 51.2941 230.775 51.6166 230.724 52.0403L230.69 52.3262L245.115 54.0509L244.446 59.6431L223.889 57.1852Z" fill="url(#paint5_linear_75_1021)"/>
</g>
<defs>
<filter id="filter0_f_75_1021" x="0.121704" y="0.953125" width="251.655" height="77.3359" filterUnits="userSpaceOnUse" color-interpolation-filters="sRGB">
<feFlood flood-opacity="0" result="BackgroundImageFix"/>
<feBlend mode="normal" in="SourceGraphic" in2="BackgroundImageFix" result="shape"/>
<feGaussianBlur stdDeviation="2.5" result="effect1_foregroundBlur_75_1021"/>
</filter>
<linearGradient id="paint0_linear_75_1021" x1="129.009" y1="19.1888" x2="123.675" y2="63.7991" gradientUnits="userSpaceOnUse">
<stop stop-color="#7642CB"/>
<stop offset="1" stop-color="#7642CB" stop-opacity="0"/>
</linearGradient>
<linearGradient id="paint1_linear_75_1021" x1="129.009" y1="19.1888" x2="123.675" y2="63.7991" gradientUnits="userSpaceOnUse">
<stop stop-color="#7642CB"/>
<stop offset="1" stop-color="#7642CB" stop-opacity="0"/>
</linearGradient>
<linearGradient id="paint2_linear_75_1021" x1="129.009" y1="19.1888" x2="123.675" y2="63.7991" gradientUnits="userSpaceOnUse">
<stop stop-color="#7642CB"/>
<stop offset="1" stop-color="#7642CB" stop-opacity="0"/>
</linearGradient>
<linearGradient id="paint3_linear_75_1021" x1="129.009" y1="19.1888" x2="123.675" y2="63.7991" gradientUnits="userSpaceOnUse">
<stop stop-color="#7642CB"/>
<stop offset="1" stop-color="#7642CB" stop-opacity="0"/>
</linearGradient>
<linearGradient id="paint4_linear_75_1021" x1="129.009" y1="19.1888" x2="123.675" y2="63.7991" gradientUnits="userSpaceOnUse">
<stop stop-color="#7642CB"/>
<stop offset="1" stop-color="#7642CB" stop-opacity="0"/>
</linearGradient>
<linearGradient id="paint5_linear_75_1021" x1="129.009" y1="19.1888" x2="123.675" y2="63.7991" gradientUnits="userSpaceOnUse">
<stop stop-color="#7642CB"/>
<stop offset="1" stop-color="#7642CB" stop-opacity="0"/>
</linearGradient>
</defs>
</svg>