<svg width="195" height="220" viewBox="0 0 195 220" fill="none" xmlns="http://www.w3.org/2000/svg">
<g filter="url(#filter0_f_75_1009)">
<path d="M88.5771 46.2107C68.1072 44.2803 57.0512 44.1339 49.3027 45.7019C40.9274 47.395 36.303 51.0722 31.2357 60.0784C30.2082 61.9012 29.5014 63.2409 25.2855 71.4664C24.3978 73.1781 23.0109 75.8258 22.1908 77.3489C20.7582 79.9914 20.6971 80.123 20.9289 80.2186C21.0506 80.267 22.2029 80.5017 23.4719 80.7265L25.7829 81.1388L26.0308 80.8899C26.6574 80.2568 27.8413 78.7866 29.2355 76.89C32.2133 72.8528 33.6474 71.2148 35.7895 69.4492C38.1616 67.4905 40.2746 66.2873 43.0935 65.2796C46.5128 64.0746 50.0966 63.5578 54.8409 63.6113C56.7914 63.6364 62.2776 64.2821 64.7051 64.7884C65.7889 65.0153 66.7156 65.2013 66.7726 65.2077C66.9324 65.2259 65.806 72.8093 64.9228 77.6382C61.0963 98.5252 54.9071 115.381 46.1038 128.892C42.6197 134.234 39.0982 138.683 33.8136 144.409C27.4344 151.327 26.5012 152.422 25.1776 154.511C23.9826 156.384 23.2327 158.308 23.0477 159.938C22.9262 161.009 22.9847 163.243 23.1723 164.442C23.8037 168.554 25.9188 172.119 29.2069 174.616C32.3367 176.98 35.9792 178.086 39.8681 177.834C48.3067 177.314 54.0053 171.912 58.8181 159.853C61.3839 153.437 63.7354 145.242 66.4567 133.28C68.4992 124.346 69.5529 119.236 74.3705 95.2178C76.0567 86.7745 77.9748 77.3069 78.6197 74.171C79.2645 71.035 79.8684 68.056 79.9621 67.5356L80.1366 66.6088L95.6329 68.3673L111.141 70.1271L111.097 70.5146C111.032 71.0844 109.923 77.0883 109.114 81.2676C108.127 86.3965 106.421 94.6067 104.165 105.121C101.666 116.751 100.673 121.532 99.5171 127.335C96.4395 142.743 94.5404 155.098 94.5999 159.157C94.678 163.46 95.2501 166.873 96.4943 170.269C99.4264 178.348 105.46 183.742 114.22 186.098C115.756 186.515 120.594 187.168 122.268 187.185C133.027 187.298 142.226 181.196 148.853 169.55C150.397 166.839 152.052 163.16 153.121 160.049C154.107 157.171 155.126 153.073 155.353 151.079L155.441 150.304L152.759 149.999L150.078 149.695L150.021 150.197C149.85 151.701 148.788 155.148 147.973 156.833C145.006 163.018 139.878 166.038 132.763 165.796C131.681 165.754 129.418 165.324 128.181 164.919C122.709 163.132 119.511 158.925 118.329 151.922C117.242 145.507 118.035 135.774 120.748 121.952C121.445 118.453 122.182 114.911 123.785 107.405C126.428 95.0185 127.426 90.0872 128.433 84.268C129.046 80.7013 129.799 75.7998 130.007 73.9649L130.161 72.6087L145.079 74.3708C153.279 75.3474 160.849 76.2642 161.895 76.4175L163.804 76.7035L164.763 67.6465C165.292 62.6735 165.785 57.8233 165.858 56.8735L165.985 55.1448L154.627 53.7867C135.324 51.4577 93.9063 46.7116 88.5771 46.2107Z" fill="url(#paint0_linear_75_1009)"/>
</g>
<defs>
<filter id="filter0_f_75_1009" x="-47.4609" y="-25" width="266.922" height="270" filterUnits="userSpaceOnUse" color-interpolation-filters="sRGB">
<feFlood flood-opacity="0" result="BackgroundImageFix"/>
<feBlend mode="normal" in="SourceGraphic" in2="BackgroundImageFix" result="shape"/>
<feGaussianBlur stdDeviation="12.5" result="effect1_foregroundBlur_75_1009"/>
</filter>
<linearGradient id="paint0_linear_75_1009" x1="80.478" y1="182.704" x2="95.8792" y2="46.9827" gradientUnits="userSpaceOnUse">
<stop stop-color="#7642CB"/>
<stop offset="1" stop-color="#7642CB" stop-opacity="0"/>
</linearGradient>
</defs>
</svg>