<svg width="3rem" height="3.7rem" viewBox="0 0 30 37" fill="none" xmlns="http://www.w3.org/2000/svg">
<path d="M6.63295 24.7688H7.57258C7.83891 24.7688 8.05837 24.723 8.23096 24.6314C8.40567 24.5376 8.53564 24.4087 8.62087 24.2447C8.70823 24.0785 8.75191 23.8878 8.75191 23.6726C8.75191 23.4553 8.70823 23.2656 8.62087 23.1037C8.53564 22.9396 8.40567 22.8129 8.23096 22.7234C8.05624 22.6317 7.83465 22.5859 7.56618 22.5859H6.63295V24.7688Z"/>
<path d="M13.339 26.8143H12.4601V22.6403H13.3422C13.7513 22.6403 14.0954 22.7127 14.3745 22.8576C14.6536 23.0025 14.8635 23.2283 15.0041 23.5352C15.1469 23.842 15.2183 24.2372 15.2183 24.7209C15.2183 25.2088 15.1469 25.6072 15.0041 25.9162C14.8635 26.223 14.6526 26.4499 14.3713 26.5969C14.0922 26.7418 13.7481 26.8143 13.339 26.8143Z"/>
<path fill-rule="evenodd" clip-rule="evenodd" d="M6.44081 0.5H20.8999L30 9.56824V32.6684C30 34.7818 28.2806 36.4999 26.1696 36.4999H6.44081C4.32848 36.4999 2.60927 34.7818 2.60927 32.6684V30.9514H2.23504C1.38241 30.9514 0.691071 30.2607 0.691071 29.4075V20.044C0.691071 19.1907 1.38249 18.4999 2.23504 18.4999H2.60927V4.33154C2.60927 2.2204 4.32848 0.5 6.44081 0.5ZM6.44081 34.1534H26.1696C26.9874 34.1534 27.6522 33.4874 27.6522 32.6683L27.5969 10.4978L22.6792 10.5119C21.2118 10.5119 20.022 9.32102 20.022 7.85471V2.83462L6.44081 2.8488C5.62298 2.8488 4.95688 3.51483 4.95688 4.33154V18.4999H23.3481C24.2008 18.4999 24.8922 19.1907 24.8922 20.044V29.4075C24.8922 30.2607 24.2008 30.9514 23.3481 30.9514H4.95688V32.6684C4.95688 33.4874 5.62291 34.1534 6.44081 34.1534ZM5.24907 21.4545V28H6.63295V25.8778H7.7963C8.29914 25.8778 8.72741 25.7852 9.0811 25.5998C9.43692 25.4144 9.70859 25.1555 9.89609 24.8232C10.0836 24.4908 10.1773 24.1072 10.1773 23.6726C10.1773 23.2379 10.0847 22.8544 9.89928 22.522C9.71604 22.1875 9.44971 21.9265 9.10028 21.739C8.75084 21.5494 8.3279 21.4545 7.83145 21.4545H5.24907ZM11.0762 28H13.3965C14.0613 28 14.6323 27.869 15.1096 27.6069C15.589 27.3448 15.9565 26.9688 16.2122 26.4787C16.47 25.9886 16.5989 25.4027 16.5989 24.7209C16.5989 24.0412 16.47 23.4574 16.2122 22.9695C15.9565 22.4815 15.5911 22.1076 15.116 21.8477C14.6408 21.5856 14.0741 21.4545 13.4157 21.4545H11.0762V28ZM17.6241 21.4545V28H19.0079V25.2962H21.6702V24.1552H19.0079V22.5955H21.9579V21.4545H17.6241Z"/>
</svg>