<svg width="30" height="37" viewBox="0 0 30 37" fill="none" xmlns="http://www.w3.org/2000/svg">
<path fill-rule="evenodd" clip-rule="evenodd" d="M6.44082 0.499982H20.8999L30 9.56823V32.6684C30 34.7817 28.2806 36.4999 26.1696 36.4999H6.44082C4.32848 36.4999 2.60927 34.7818 2.60927 32.6684V30.9514H2.23504C1.38242 30.9514 0.691075 30.2607 0.691075 29.4075V20.0439C0.691075 19.1907 1.38249 18.4999 2.23504 18.4999H2.60927V4.33152C2.60927 2.22039 4.32848 0.499982 6.44082 0.499982ZM6.44082 34.1534H26.1696C26.9874 34.1534 27.6522 33.4874 27.6522 32.6683L27.5969 10.4978L22.6792 10.5119C21.2118 10.5119 20.022 9.321 20.022 7.85469V2.8346L6.44082 2.84878C5.62299 2.84878 4.95688 3.51482 4.95688 4.33152V18.4999H23.3481C24.2008 18.4999 24.8922 19.1907 24.8922 20.0439V29.4075C24.8922 30.2607 24.2008 30.9514 23.3481 30.9514H4.95688V32.6684C4.95688 33.4874 5.62291 34.1534 6.44082 34.1534ZM6.65052 28V21.4545H5.26665V28H6.65052ZM9.49578 21.4545H7.78911V28H9.13144V23.7237H9.18577L10.8797 27.968H11.7937L13.4876 23.7397H13.5419V28H14.8843V21.4545H13.1776L11.375 25.8523H11.2983L9.49578 21.4545ZM20.1761 23.158C20.2571 23.2773 20.3199 23.4148 20.3647 23.5703H21.7709C21.7262 23.2464 21.625 22.9503 21.4673 22.6818C21.3096 22.4112 21.1061 22.1779 20.8568 21.9819C20.6097 21.7859 20.3263 21.6346 20.0067 21.5281C19.6871 21.4194 19.3419 21.3651 18.9712 21.3651C18.5387 21.3651 18.137 21.4407 17.7663 21.592C17.3956 21.7433 17.0706 21.9638 16.7915 22.2536C16.5124 22.5433 16.2951 22.897 16.1395 23.3146C15.9861 23.7301 15.9094 24.2031 15.9094 24.7337C15.9094 25.424 16.0383 26.0206 16.2961 26.5234C16.5561 27.0241 16.9183 27.4109 17.3828 27.6836C17.8473 27.9542 18.3863 28.0895 19 28.0895C19.5497 28.0895 20.0376 27.9787 20.4637 27.7571C20.8899 27.5334 21.2244 27.2159 21.4673 26.8047C21.7102 26.3913 21.8316 25.897 21.8316 25.3217V24.4972H19.0926V25.5391H20.4984C20.4928 25.8007 20.4333 26.0287 20.3199 26.223C20.2027 26.4276 20.0323 26.5863 19.8085 26.6992C19.587 26.81 19.3196 26.8654 19.0063 26.8654C18.6612 26.8654 18.3618 26.7823 18.1083 26.6161C17.8547 26.4478 17.6587 26.2038 17.5202 25.8842C17.3817 25.5646 17.3125 25.1768 17.3125 24.7209C17.3125 24.2649 17.3828 23.8793 17.5234 23.5639C17.664 23.2464 17.86 23.0046 18.1115 22.8384C18.365 22.6722 18.659 22.5891 18.9936 22.5891C19.1725 22.5891 19.3355 22.6115 19.4826 22.6562C19.6317 22.701 19.7638 22.766 19.8789 22.8512C19.996 22.9343 20.0951 23.0366 20.1761 23.158Z" fill="white"/>
</svg>