<svg width="3rem" height="3.7rem" viewBox="0 0 30 37" fill="none" xmlns="http://www.w3.org/2000/svg">
<path d="M6.97017 26.946H6.18892V23.2358H6.97301C7.33665 23.2358 7.64252 23.3002 7.89062 23.429C8.13873 23.5578 8.32528 23.7585 8.45028 24.0312C8.57718 24.304 8.64062 24.6553 8.64062 25.0852C8.64062 25.5189 8.57718 25.8731 8.45028 26.1477C8.32528 26.4205 8.13778 26.6222 7.88778 26.7528C7.63968 26.8816 7.33381 26.946 6.97017 26.946Z"/>
<path d="M14.6939 24.0511C14.817 24.3333 14.8786 24.6799 14.8786 25.0909C14.8786 25.5019 14.817 25.8485 14.6939 26.1307C14.5727 26.4129 14.4013 26.6269 14.1797 26.7727C13.9581 26.9186 13.6986 26.9915 13.4013 26.9915C13.1039 26.9915 12.8445 26.9186 12.6229 26.7727C12.4013 26.6269 12.2289 26.4129 12.1058 26.1307C11.9846 25.8485 11.924 25.5019 11.924 25.0909C11.924 24.6799 11.9846 24.3333 12.1058 24.0511C12.2289 23.7689 12.4013 23.5549 12.6229 23.4091C12.8445 23.2633 13.1039 23.1903 13.4013 23.1903C13.6986 23.1903 13.9581 23.2633 14.1797 23.4091C14.4013 23.5549 14.5727 23.7689 14.6939 24.0511Z" />
<path fill-rule="evenodd" clip-rule="evenodd" d="M6.44081 0.5H20.8999L30 9.56824V32.6684C30 34.7818 28.2806 36.4999 26.1696 36.4999H6.44081C4.32848 36.4999 2.60927 34.7818 2.60927 32.6684V30.9514H2.23504C1.38241 30.9514 0.691071 30.2607 0.691071 29.4075V20.044C0.691071 19.1907 1.38249 18.4999 2.23504 18.4999H2.60927V4.33154C2.60927 2.2204 4.32848 0.5 6.44081 0.5ZM6.44081 34.1534H26.1696C26.9874 34.1534 27.6522 33.4874 27.6522 32.6683L27.5969 10.4978L22.6792 10.5119C21.2118 10.5119 20.022 9.32102 20.022 7.85471V2.83462L6.44081 2.8488C5.62298 2.8488 4.95688 3.51483 4.95688 4.33154V18.4999H23.3481C24.2008 18.4999 24.8922 19.1907 24.8922 20.044V29.4075C24.8922 30.2607 24.2008 30.9514 23.3481 30.9514H4.95688V32.6684C4.95688 33.4874 5.62291 34.1534 6.44081 34.1534ZM4.95881 28H7.02131C7.61222 28 8.11979 27.8835 8.54403 27.6506C8.97017 27.4176 9.29688 27.0833 9.52415 26.6477C9.75331 26.2121 9.8679 25.6913 9.8679 25.0852C9.8679 24.4811 9.75331 23.9621 9.52415 23.5284C9.29688 23.0947 8.97206 22.7623 8.54972 22.5312C8.12737 22.2983 7.62358 22.1818 7.03835 22.1818H4.95881V28ZM15.7649 26.7102C16.0054 26.2652 16.1257 25.7254 16.1257 25.0909C16.1257 24.4564 16.0054 23.9167 15.7649 23.4716C15.5263 23.0265 15.2005 22.6875 14.7876 22.4545C14.3767 22.2197 13.9145 22.1023 13.4013 22.1023C12.8842 22.1023 12.4202 22.2197 12.0092 22.4545C11.5982 22.6875 11.2734 23.0265 11.0348 23.4716C10.7962 23.9167 10.6768 24.4564 10.6768 25.0909C10.6768 25.7235 10.7962 26.2623 11.0348 26.7074C11.2734 27.1525 11.5982 27.4924 12.0092 27.7273C12.4202 27.9621 12.8842 28.0795 13.4013 28.0795C13.9145 28.0795 14.3767 27.9631 14.7876 27.7301C15.2005 27.4953 15.5263 27.1553 15.7649 26.7102ZM20.9261 24.2188H22.1705C22.1307 23.8816 22.0398 23.5824 21.8977 23.321C21.7576 23.0597 21.5758 22.839 21.3523 22.6591C21.1288 22.4773 20.8722 22.339 20.5824 22.2443C20.2945 22.1496 19.982 22.1023 19.6449 22.1023C19.1335 22.1023 18.6733 22.2197 18.2642 22.4545C17.8551 22.6875 17.5312 23.0265 17.2926 23.4716C17.054 23.9167 16.9347 24.4564 16.9347 25.0909C16.9347 25.7235 17.0521 26.2623 17.2869 26.7074C17.5237 27.1525 17.8456 27.4924 18.2528 27.7273C18.6619 27.9621 19.1259 28.0795 19.6449 28.0795C20.018 28.0795 20.3523 28.0237 20.6477 27.9119C20.9451 27.7983 21.2008 27.6449 21.4148 27.4517C21.6307 27.2566 21.8021 27.036 21.929 26.7898C22.0578 26.5417 22.1383 26.2841 22.1705 26.017L20.9261 26.0114C20.8977 26.1667 20.8466 26.3049 20.7727 26.4261C20.7008 26.5473 20.6098 26.6506 20.5 26.7358C20.3902 26.8191 20.2642 26.8826 20.1222 26.9261C19.982 26.9697 19.8295 26.9915 19.6648 26.9915C19.3712 26.9915 19.1127 26.9195 18.8892 26.7756C18.6657 26.6316 18.4915 26.4186 18.3665 26.1364C18.2434 25.8542 18.1818 25.5057 18.1818 25.0909C18.1818 24.6875 18.2434 24.3447 18.3665 24.0625C18.4896 23.7784 18.6629 23.5625 18.8864 23.4148C19.1098 23.2652 19.3722 23.1903 19.6733 23.1903C19.84 23.1903 19.9943 23.214 20.1364 23.2614C20.2803 23.3087 20.4072 23.3769 20.517 23.4659C20.6269 23.5549 20.7169 23.6629 20.7869 23.7898C20.857 23.9148 20.9034 24.0578 20.9261 24.2188Z"/>
</svg>