<svg width="18" height="18" viewBox="0 0 18 18" fill="none" xmlns="http://www.w3.org/2000/svg">
<mask id="mask0_101_843" style="mask-type:alpha" maskUnits="userSpaceOnUse" x="0" y="0" width="18" height="18">
<rect width="18" height="18" fill="#D9D9D9"/>
</mask>
<g mask="url(#mask0_101_843)">
<path d="M9 14.25C8.7875 14.25 8.6095 14.178 8.466 14.034C8.322 13.8905 8.25 13.7125 8.25 13.5V9.75H4.5C4.2875 9.75 4.10925 9.678 3.96525 9.534C3.82175 9.3905 3.75 9.2125 3.75 9C3.75 8.7875 3.82175 8.60925 3.96525 8.46525C4.10925 8.32175 4.2875 8.25 4.5 8.25H8.25V4.5C8.25 4.2875 8.322 4.10925 8.466 3.96525C8.6095 3.82175 8.7875 3.75 9 3.75C9.2125 3.75 9.39075 3.82175 9.53475 3.96525C9.67825 4.10925 9.75 4.2875 9.75 4.5V8.25H13.5C13.7125 8.25 13.8905 8.32175 14.034 8.46525C14.178 8.60925 14.25 8.7875 14.25 9C14.25 9.2125 14.178 9.3905 14.034 9.534C13.8905 9.678 13.7125 9.75 13.5 9.75H9.75V13.5C9.75 13.7125 9.67825 13.8905 9.53475 14.034C9.39075 14.178 9.2125 14.25 9 14.25Z" fill="white"/>
</g>
</svg>