<svg width="10" height="10" viewBox="0 0 10 10" fill="none" xmlns="http://www.w3.org/2000/svg">
<mask id="mask0_12_553" style="mask-type:alpha" maskUnits="userSpaceOnUse" x="0" y="0" width="10" height="10">
<rect width="10" height="10" fill="#D9D9D9"/>
</mask>
<g mask="url(#mask0_12_553)">
<path d="M2.08333 9.16671C1.85417 9.16671 1.65792 9.08518 1.49458 8.92212C1.33153 8.75879 1.25 8.56254 1.25 8.33337V2.50004C1.25 2.27087 1.33153 2.07476 1.49458 1.91171C1.65792 1.74837 1.85417 1.66671 2.08333 1.66671H2.5V0.833374H3.33333V1.66671H6.66667V0.833374H7.5V1.66671H7.91667C8.14583 1.66671 8.34208 1.74837 8.50542 1.91171C8.66847 2.07476 8.75 2.27087 8.75 2.50004V8.33337C8.75 8.56254 8.66847 8.75879 8.50542 8.92212C8.34208 9.08518 8.14583 9.16671 7.91667 9.16671H2.08333ZM2.08333 8.33337H7.91667V4.16671H2.08333V8.33337ZM2.08333 3.33337H7.91667V2.50004H2.08333V3.33337Z" fill="white"/>
</g>
</svg>