<svg width="18" height="18" viewBox="0 0 18 18" fill="none" xmlns="http://www.w3.org/2000/svg">
<mask id="mask0_101_839" style="mask-type:alpha" maskUnits="userSpaceOnUse" x="0" y="0" width="18" height="18">
<rect width="18" height="18" fill="#D9D9D9"/>
</mask>
<g mask="url(#mask0_101_839)">
<path d="M6 10.5C5.7875 10.5 5.60925 10.428 5.46525 10.284C5.32175 10.1405 5.25 9.9625 5.25 9.75C5.25 9.5375 5.32175 9.35925 5.46525 9.21525C5.60925 9.07175 5.7875 9 6 9H12C12.2125 9 12.3905 9.07175 12.534 9.21525C12.678 9.35925 12.75 9.5375 12.75 9.75C12.75 9.9625 12.678 10.1405 12.534 10.284C12.3905 10.428 12.2125 10.5 12 10.5H6ZM6 13.5C5.7875 13.5 5.60925 13.428 5.46525 13.284C5.32175 13.1405 5.25 12.9625 5.25 12.75C5.25 12.5375 5.32175 12.3595 5.46525 12.216C5.60925 12.072 5.7875 12 6 12H9.75C9.9625 12 10.1408 12.072 10.2847 12.216C10.4283 12.3595 10.5 12.5375 10.5 12.75C10.5 12.9625 10.4283 13.1405 10.2847 13.284C10.1408 13.428 9.9625 13.5 9.75 13.5H6ZM3.75 16.5C3.3375 16.5 2.98425 16.3533 2.69025 16.0597C2.39675 15.7657 2.25 15.4125 2.25 15V4.5C2.25 4.0875 2.39675 3.7345 2.69025 3.441C2.98425 3.147 3.3375 3 3.75 3H4.5V2.25C4.5 2.0375 4.57175 1.85925 4.71525 1.71525C4.85925 1.57175 5.0375 1.5 5.25 1.5C5.4625 1.5 5.64075 1.57175 5.78475 1.71525C5.92825 1.85925 6 2.0375 6 2.25V3H12V2.25C12 2.0375 12.072 1.85925 12.216 1.71525C12.3595 1.57175 12.5375 1.5 12.75 1.5C12.9625 1.5 13.1405 1.57175 13.284 1.71525C13.428 1.85925 13.5 2.0375 13.5 2.25V3H14.25C14.6625 3 15.0157 3.147 15.3097 3.441C15.6033 3.7345 15.75 4.0875 15.75 4.5V15C15.75 15.4125 15.6033 15.7657 15.3097 16.0597C15.0157 16.3533 14.6625 16.5 14.25 16.5H3.75ZM3.75 15H14.25V7.5H3.75V15ZM3.75 6H14.25V4.5H3.75V6Z" fill="#A57CE8"/>
</g>
</svg>