<svg width="14" height="14" viewBox="0 0 14 14" fill="none" xmlns="http://www.w3.org/2000/svg">
<mask id="mask0_101_907" style="mask-type:alpha" maskUnits="userSpaceOnUse" x="0" y="0" width="14" height="14">
<rect width="14" height="14" fill="#D9D9D9"/>
</mask>
<g mask="url(#mask0_101_907)">
<path d="M8.53127 9.34784C8.63821 9.45479 8.76946 9.50826 8.92502 9.50826C9.08058 9.50826 9.21669 9.44993 9.33335 9.33326C9.4403 9.22632 9.49377 9.09021 9.49377 8.92493C9.49377 8.75965 9.4403 8.62354 9.33335 8.5166L7.58335 6.7666V4.65201C7.58335 4.48673 7.52755 4.35062 7.41594 4.24368C7.30394 4.13673 7.1653 4.08326 7.00002 4.08326C6.83474 4.08326 6.6963 4.13907 6.58469 4.25068C6.47269 4.36268 6.41669 4.50132 6.41669 4.6666V6.98535C6.41669 7.06312 6.43127 7.13837 6.46044 7.2111C6.4896 7.28421 6.53335 7.34993 6.59169 7.40826L8.53127 9.34784ZM7.00002 12.8333C6.19308 12.8333 5.43474 12.68 4.72502 12.3736C4.0153 12.0675 3.39794 11.652 2.87294 11.127C2.34794 10.602 1.93241 9.98465 1.62635 9.27493C1.31991 8.56521 1.16669 7.80687 1.16669 6.99993C1.16669 6.19298 1.31991 5.43465 1.62635 4.72493C1.93241 4.01521 2.34794 3.39785 2.87294 2.87285C3.39794 2.34785 4.0153 1.93212 4.72502 1.62568C5.43474 1.31962 6.19308 1.1666 7.00002 1.1666C7.80696 1.1666 8.5653 1.31962 9.27502 1.62568C9.98474 1.93212 10.6021 2.34785 11.1271 2.87285C11.6521 3.39785 12.0676 4.01521 12.3737 4.72493C12.6801 5.43465 12.8334 6.19298 12.8334 6.99993C12.8334 7.80687 12.6801 8.56521 12.3737 9.27493C12.0676 9.98465 11.6521 10.602 11.1271 11.127C10.6021 11.652 9.98474 12.0675 9.27502 12.3736C8.5653 12.68 7.80696 12.8333 7.00002 12.8333ZM7.00002 11.6666C8.29308 11.6666 9.39421 11.2122 10.3034 10.3033C11.2123 9.39412 11.6667 8.29298 11.6667 6.99993C11.6667 5.70687 11.2123 4.60573 10.3034 3.69651C9.39421 2.78768 8.29308 2.33326 7.00002 2.33326C5.70696 2.33326 4.60602 2.78768 3.69719 3.69651C2.78796 4.60573 2.33335 5.70687 2.33335 6.99993C2.33335 8.29298 2.78796 9.39412 3.69719 10.3033C4.60602 11.2122 5.70696 11.6666 7.00002 11.6666Z" fill="#7642CB"/>
</g>
</svg>