<svg width="24" height="24" viewBox="0 0 24 24" fill="none" xmlns="http://www.w3.org/2000/svg">
<mask id="mask0_106_1786" style="mask-type:alpha" maskUnits="userSpaceOnUse" x="0" y="0" width="24" height="24">
<rect width="24" height="24" fill="#D9D9D9"/>
</mask>
<g mask="url(#mask0_106_1786)">
<path d="M12 13.4L7.1 18.3C6.91667 18.4833 6.68333 18.575 6.4 18.575C6.11667 18.575 5.88333 18.4833 5.7 18.3C5.51667 18.1167 5.425 17.8833 5.425 17.6C5.425 17.3167 5.51667 17.0833 5.7 16.9L10.6 12L5.7 7.09999C5.51667 6.91665 5.425 6.68332 5.425 6.39999C5.425 6.11665 5.51667 5.88332 5.7 5.69999C5.88333 5.51665 6.11667 5.42499 6.4 5.42499C6.68333 5.42499 6.91667 5.51665 7.1 5.69999L12 10.6L16.9 5.69999C17.0833 5.51665 17.3167 5.42499 17.6 5.42499C17.8833 5.42499 18.1167 5.51665 18.3 5.69999C18.4833 5.88332 18.575 6.11665 18.575 6.39999C18.575 6.68332 18.4833 6.91665 18.3 7.09999L13.4 12L18.3 16.9C18.4833 17.0833 18.575 17.3167 18.575 17.6C18.575 17.8833 18.4833 18.1167 18.3 18.3C18.1167 18.4833 17.8833 18.575 17.6 18.575C17.3167 18.575 17.0833 18.4833 16.9 18.3L12 13.4Z" fill="white"/>
</g>
</svg>