<!-- <svg width="28" height="37" viewBox="0 0 28 37" fill="none" xmlns="http://www.w3.org/2000/svg">
<mask id="path-1-outside-1_603_2186" maskUnits="userSpaceOnUse" x="0" y="0" width="28" height="37" fill="black">
<rect fill="white" width="28" height="37"/>
<path fill-rule="evenodd" clip-rule="evenodd" d="M25.5 2C25.7761 2 26 2.22386 26 2.5V25.8625C26 26.0286 25.9175 26.1839 25.7799 26.2768L23 28.1549V2H25.5ZM21 2H7V29.4037L13.9064 33.9281C14.0749 34.0385 14.2933 34.037 14.4603 33.9242L21 29.506V2ZM5 28.0935V2H2.5C2.22386 2 2 2.22386 2 2.5V25.858C2 26.0266 2.08497 26.1838 2.22601 26.2762L5 28.0935Z"/>
</mask>
<path d="M25.7799 26.2768L26.8995 27.9341L26.8995 27.9341L25.7799 26.2768ZM23 28.1549H21V31.9197L24.1196 29.8121L23 28.1549ZM23 2V0H21V2H23ZM21 2H23V0H21V2ZM7 2V0H5V2H7ZM7 29.4037H5V30.4844L5.90402 31.0766L7 29.4037ZM13.9064 33.9281L15.0024 32.2551L15.0023 32.2551L13.9064 33.9281ZM14.4603 33.9242L15.5798 35.5814L15.5799 35.5814L14.4603 33.9242ZM21 29.506L22.1196 31.1633L23 30.5685V29.506H21ZM5 2H7V0H5V2ZM5 28.0935L3.90402 29.7664L7 31.7946V28.0935H5ZM2.22601 26.2762L3.32198 24.6032L3.32198 24.6032L2.22601 26.2762ZM28 2.5C28 1.11929 26.8807 0 25.5 0V4C24.6716 4 24 3.32843 24 2.5H28ZM28 25.8625V2.5H24V25.8625H28ZM26.8995 27.9341C27.5876 27.4692 28 26.693 28 25.8625H24C24 25.3642 24.2474 24.8985 24.6603 24.6196L26.8995 27.9341ZM24.1196 29.8121L26.8995 27.9341L24.6603 24.6196L21.8804 26.4976L24.1196 29.8121ZM25 28.1549V2H21V28.1549H25ZM25.5 0H23V4H25.5V0ZM21 0H7V4H21V0ZM9 29.4037V2H5V29.4037H9ZM5.90402 31.0766L12.8104 35.6011L15.0023 32.2551L8.09598 27.7307L5.90402 31.0766ZM12.8104 35.6011C13.6532 36.1532 14.745 36.1454 15.5798 35.5814L13.3407 32.2669C13.8416 31.9285 14.4967 31.9238 15.0024 32.2551L12.8104 35.6011ZM15.5799 35.5814L22.1196 31.1633L19.8804 27.8488L13.3407 32.2669L15.5799 35.5814ZM19 2V29.506H23V2H19ZM3 2V28.0935H7V2H3ZM5 0H2.5V4H5V0ZM2.5 0C1.11929 0 0 1.11929 0 2.5H4C4 3.32843 3.32843 4 2.5 4V0ZM0 2.5V25.858H4V2.5H0ZM0 25.858C0 26.701 0.424862 27.4872 1.13003 27.9492L3.32198 24.6032C3.74508 24.8804 4 25.3521 4 25.858H0ZM1.13003 27.9492L3.90402 29.7664L6.09598 26.4205L3.32198 24.6032L1.13003 27.9492Z" fill="white" mask="url(#path-1-outside-1_603_2186)"/>
</svg> -->
<svg width="26" height="34" viewBox="0 0 26 34" fill="none" xmlns="http://www.w3.org/2000/svg">
<mask id="path-1-outside-1_613_2188" maskUnits="userSpaceOnUse" x="0" y="0" width="26" height="34" fill="black">
<rect fill="white" width="26" height="34"/>
<path fill-rule="evenodd" clip-rule="evenodd" d="M23.5 2C23.7761 2 24 2.22386 24 2.5V23.8518C24 24.0179 23.9175 24.1732 23.7799 24.2662L20 26.8198V2H23.5ZM17 2H9V28.7032L12.891 31.2522C13.0595 31.3626 13.2779 31.3611 13.4449 31.2483L17 28.8465V2ZM6 26.7379V2H2.5C2.22386 2 2 2.22386 2 2.5V23.8473C2 24.0159 2.08497 24.1731 2.22601 24.2655L6 26.7379Z"/>
</mask>
<path d="M23.7799 24.2662L22.6603 22.6089L22.6603 22.6089L23.7799 24.2662ZM20 26.8198H18V30.5846L21.1196 28.477L20 26.8198ZM20 2V0H18V2H20ZM17 2H19V0H17V2ZM9 2V0H7V2H9ZM9 28.7032H7V29.784L7.90402 30.3762L9 28.7032ZM12.891 31.2522L13.987 29.5793L13.987 29.5793L12.891 31.2522ZM13.4449 31.2483L14.5645 32.9056L14.5645 32.9055L13.4449 31.2483ZM17 28.8465L18.1196 30.5038L19 29.909V28.8465H17ZM6 2H8V0H6V2ZM6 26.7379L4.90402 28.4109L8 30.4391V26.7379H6ZM2.22601 24.2655L3.32198 22.5925L3.32198 22.5925L2.22601 24.2655ZM26 2.5C26 1.11929 24.8807 0 23.5 0V4C22.6716 4 22 3.32843 22 2.5H26ZM26 23.8518V2.5H22V23.8518H26ZM24.8995 25.9234C25.5876 25.4585 26 24.6823 26 23.8518H22C22 23.3536 22.2474 22.8878 22.6603 22.6089L24.8995 25.9234ZM21.1196 28.477L24.8995 25.9234L22.6603 22.6089L18.8804 25.1625L21.1196 28.477ZM22 26.8198V2H18V26.8198H22ZM23.5 0H20V4H23.5V0ZM17 0H9V4H17V0ZM11 28.7032V2H7V28.7032H11ZM7.90402 30.3762L11.795 32.9252L13.987 29.5793L10.096 27.0302L7.90402 30.3762ZM11.795 32.9252C12.6378 33.4773 13.7296 33.4696 14.5645 32.9056L12.3253 29.591C12.8262 29.2526 13.4813 29.248 13.987 29.5793L11.795 32.9252ZM14.5645 32.9055L18.1196 30.5038L15.8804 27.1893L12.3253 29.591L14.5645 32.9055ZM15 2V28.8465H19V2H15ZM4 2V26.7379H8V2H4ZM6 0H2.5V4H6V0ZM2.5 0C1.11928 0 0 1.11929 0 2.5H4C4 3.32842 3.32843 4 2.5 4V0ZM0 2.5V23.8473H4V2.5H0ZM0 23.8473C0 24.6903 0.424855 25.4765 1.13003 25.9385L3.32198 22.5925C3.74509 22.8697 4 23.3415 4 23.8473H0ZM1.13003 25.9385L4.90402 28.4109L7.09598 25.0649L3.32198 22.5925L1.13003 25.9385Z" fill="white" mask="url(#path-1-outside-1_613_2188)"/>
</svg>
