<!-- <svg width="24" height="33" viewBox="0 0 24 33" fill="none" xmlns="http://www.w3.org/2000/svg">
<path fill-rule="evenodd" clip-rule="evenodd" d="M23.5 0C23.7761 0 24 0.223858 24 0.5V23.8625C24 24.0286 23.9175 24.1839 23.7799 24.2768L21 26.1549V0H23.5ZM19 0H5V27.4037L11.9064 31.9281C12.0749 32.0385 12.2933 32.037 12.4603 31.9242L19 27.506V0ZM3 26.0935V0H0.5C0.223858 0 0 0.223857 0 0.5V23.858C0 24.0266 0.084972 24.1838 0.226005 24.2762L3 26.0935Z" fill="white"/>
</svg> -->
<svg width="22" height="30" viewBox="0 0 22 30" fill="none" xmlns="http://www.w3.org/2000/svg">
<path fill-rule="evenodd" clip-rule="evenodd" d="M21.5 0C21.7761 0 22 0.223858 22 0.5V21.8518C22 22.0179 21.9175 22.1732 21.7799 22.2662L19.25 23.9753V0H21.5ZM17.4167 0H4.58333V25.12L10.891 29.2522C11.0595 29.3626 11.2779 29.3611 11.4449 29.2483L17.4167 25.2139V0ZM2.75 23.919V0H0.5C0.223858 0 0 0.223858 0 0.500001V21.8473C0 22.0159 0.0849719 22.1731 0.226005 22.2655L2.75 23.919Z" fill="white"/>
</svg>