<svg width="24" height="24" viewBox="0 0 24 24" fill="none" xmlns="http://www.w3.org/2000/svg">
<path d="M4.30087 15.0453L9.012 19.7564C9.41317 20.1576 10.0715 20.1576 10.4727 19.7564C10.8738 19.3552 10.8738 18.6969 10.4727 18.2957L7.5102 15.3436H17.9714C18.5371 15.3436 19 14.8807 19 14.3149V4.02863C19 3.46288 18.5371 3 17.9714 3C17.4056 3 16.9427 3.46288 16.9427 4.02863V13.2863H7.5102L10.4727 10.3341C10.8738 9.93297 10.8738 9.27464 10.4727 8.87348C10.0715 8.47231 9.41317 8.47231 9.012 8.87348L4.30087 13.5846C3.89971 13.9858 3.89971 14.6441 4.30087 15.0453Z" fill="#905AE7"/>
</svg>