<svg width="42" height="42" viewBox="0 0 42 42" fill="none" xmlns="http://www.w3.org/2000/svg">
<path d="M11.1668 7.86799C5.68721 9.8068 1.10307 11.4581 0.97984 11.5484C0.289754 12.0578 0.355477 13.1258 1.10307 13.5612C1.23451 13.6351 5.83509 15.2946 11.3229 17.2417C19.7682 20.2485 21.3538 20.7825 21.6331 20.7496C21.9946 20.7085 41.5388 13.783 41.9167 13.5612C42.3275 13.323 42.5 13.0108 42.5 12.5179C42.5 12.0249 42.3275 11.7128 41.9167 11.4745C41.7853 11.4006 37.2586 9.77394 31.8612 7.86799C24.5496 5.28839 21.9289 4.39292 21.592 4.36827C21.1731 4.34363 20.4255 4.5983 11.1668 7.86799Z" />
<path d="M38.2938 17.5128L37.119 17.9317V27.7408L36.6343 28.2337C36.2564 28.6034 36.1167 28.817 36.0181 29.1539C35.7224 30.1479 35.9524 31.0516 36.6753 31.7499L37.1108 32.1689L37.1354 35.3811C37.16 38.4947 37.1683 38.5932 37.3326 38.8233C37.8666 39.5298 38.836 39.5298 39.37 38.8233C39.5343 38.5932 39.5425 38.4947 39.5671 35.3235L39.5918 32.0539L39.8054 31.9388C40.1258 31.7663 40.5612 31.1502 40.7008 30.6408C40.9719 29.7289 40.6844 28.7431 39.9532 28.1105L39.5836 27.7737V22.4255C39.5836 19.4844 39.5589 17.0774 39.5261 17.0856C39.485 17.0856 38.9346 17.2745 38.2938 17.5128Z" />
<path d="M9.12121 22.023C9.14585 24.8819 9.14585 24.9312 9.34302 25.3173C9.85237 26.3607 11.29 27.2397 13.6314 27.9462C18.3306 29.3757 24.681 29.3757 29.3966 27.9462C31.7215 27.2479 33.1674 26.3524 33.685 25.3091C33.8739 24.9312 33.8739 24.8572 33.8986 22.023C33.915 20.0102 33.8986 19.1312 33.8411 19.1312C33.7918 19.1312 31.1875 20.0431 28.0575 21.1604L22.3725 23.1978L21.5099 23.1895H20.6473L14.9705 21.1604C11.8405 20.0431 9.24444 19.1312 9.18693 19.1312C9.12121 19.1312 9.09656 19.8295 9.12121 22.023Z" />
</svg>