<svg width="18" height="18" viewBox="0 0 18 18" fill="none" xmlns="http://www.w3.org/2000/svg">
<mask id="mask0_101_835" style="mask-type:alpha" maskUnits="userSpaceOnUse" x="0" y="0" width="18" height="18">
<rect width="18" height="18" fill="#D9D9D9"/>
</mask>
<g mask="url(#mask0_101_835)">
<path d="M3.375 10.125C3.0625 10.125 2.797 10.0155 2.5785 9.7965C2.3595 9.578 2.25 9.3125 2.25 9C2.25 8.6875 2.3595 8.422 2.5785 8.2035C2.797 7.9845 3.0625 7.875 3.375 7.875C3.6875 7.875 3.953 7.9845 4.1715 8.2035C4.3905 8.422 4.5 8.6875 4.5 9C4.5 9.3125 4.3905 9.578 4.1715 9.7965C3.953 10.0155 3.6875 10.125 3.375 10.125ZM3.375 5.625C3.0625 5.625 2.797 5.5155 2.5785 5.2965C2.3595 5.078 2.25 4.8125 2.25 4.5C2.25 4.1875 2.3595 3.922 2.5785 3.7035C2.797 3.4845 3.0625 3.375 3.375 3.375C3.6875 3.375 3.953 3.4845 4.1715 3.7035C4.3905 3.922 4.5 4.1875 4.5 4.5C4.5 4.8125 4.3905 5.078 4.1715 5.2965C3.953 5.5155 3.6875 5.625 3.375 5.625ZM3.375 14.625C3.0625 14.625 2.797 14.5155 2.5785 14.2965C2.3595 14.078 2.25 13.8125 2.25 13.5C2.25 13.1875 2.3595 12.922 2.5785 12.7035C2.797 12.4845 3.0625 12.375 3.375 12.375C3.6875 12.375 3.953 12.4845 4.1715 12.7035C4.3905 12.922 4.5 13.1875 4.5 13.5C4.5 13.8125 4.3905 14.078 4.1715 14.2965C3.953 14.5155 3.6875 14.625 3.375 14.625ZM6.75 14.25C6.5375 14.25 6.3595 14.178 6.216 14.034C6.072 13.8905 6 13.7125 6 13.5C6 13.2875 6.072 13.1095 6.216 12.966C6.3595 12.822 6.5375 12.75 6.75 12.75H15C15.2125 12.75 15.3905 12.822 15.534 12.966C15.678 13.1095 15.75 13.2875 15.75 13.5C15.75 13.7125 15.678 13.8905 15.534 14.034C15.3905 14.178 15.2125 14.25 15 14.25H6.75ZM6.75 9.75C6.5375 9.75 6.3595 9.678 6.216 9.534C6.072 9.3905 6 9.2125 6 9C6 8.7875 6.072 8.60925 6.216 8.46525C6.3595 8.32175 6.5375 8.25 6.75 8.25H15C15.2125 8.25 15.3905 8.32175 15.534 8.46525C15.678 8.60925 15.75 8.7875 15.75 9C15.75 9.2125 15.678 9.3905 15.534 9.534C15.3905 9.678 15.2125 9.75 15 9.75H6.75ZM6.75 5.25C6.5375 5.25 6.3595 5.17825 6.216 5.03475C6.072 4.89075 6 4.7125 6 4.5C6 4.2875 6.072 4.10925 6.216 3.96525C6.3595 3.82175 6.5375 3.75 6.75 3.75H15C15.2125 3.75 15.3905 3.82175 15.534 3.96525C15.678 4.10925 15.75 4.2875 15.75 4.5C15.75 4.7125 15.678 4.89075 15.534 5.03475C15.3905 5.17825 15.2125 5.25 15 5.25H6.75Z" fill="#7642CB"/>
</g>
</svg>