<svg width="24" height="24" viewBox="0 0 24 24" fill="none" xmlns="http://www.w3.org/2000/svg">
<mask id="mask0_43_1172" style="mask-type:alpha" maskUnits="userSpaceOnUse" x="0" y="0" width="24" height="24">
<rect width="24" height="24" fill="#D9D9D9"/>
</mask>
<g mask="url(#mask0_43_1172)">
<path d="M12 21C10.7667 21 9.604 20.7627 8.512 20.288C7.42067 19.8127 6.46667 19.1667 5.65 18.35C4.83333 17.5333 4.18733 16.5793 3.712 15.488C3.23733 14.396 3 13.2333 3 12C3 11.2667 3.08333 10.554 3.25 9.862C3.41667 9.17067 3.65833 8.52067 3.975 7.912C4.29167 7.304 4.671 6.73767 5.113 6.213C5.55433 5.68767 6.05 5.21667 6.6 4.8L13.4 11.6L12 13L6.6 7.6C6.1 8.2 5.70833 8.871 5.425 9.613C5.14167 10.3543 5 11.15 5 12C5 13.9333 5.68333 15.5833 7.05 16.95C8.41667 18.3167 10.0667 19 12 19C13.9333 19 15.5833 18.3167 16.95 16.95C18.3167 15.5833 19 13.9333 19 12C19 10.2167 18.4293 8.679 17.288 7.387C16.146 6.09567 14.7167 5.33333 13 5.1V7H11V3H12C13.2333 3 14.396 3.23733 15.488 3.712C16.5793 4.18733 17.5333 4.83333 18.35 5.65C19.1667 6.46667 19.8127 7.42067 20.288 8.512C20.7627 9.604 21 10.7667 21 12C21 13.2333 20.7627 14.396 20.288 15.488C19.8127 16.5793 19.1667 17.5333 18.35 18.35C17.5333 19.1667 16.5793 19.8127 15.488 20.288C14.396 20.7627 13.2333 21 12 21ZM12 18C11.7167 18 11.4793 17.904 11.288 17.712C11.096 17.5207 11 17.2833 11 17C11 16.7167 11.096 16.4793 11.288 16.288C11.4793 16.096 11.7167 16 12 16C12.2833 16 12.521 16.096 12.713 16.288C12.9043 16.4793 13 16.7167 13 17C13 17.2833 12.9043 17.5207 12.713 17.712C12.521 17.904 12.2833 18 12 18ZM17 13C16.7167 13 16.4793 12.904 16.288 12.712C16.096 12.5207 16 12.2833 16 12C16 11.7167 16.096 11.479 16.288 11.287C16.4793 11.0957 16.7167 11 17 11C17.2833 11 17.5207 11.0957 17.712 11.287C17.904 11.479 18 11.7167 18 12C18 12.2833 17.904 12.5207 17.712 12.712C17.5207 12.904 17.2833 13 17 13ZM7 13C6.71667 13 6.479 12.904 6.287 12.712C6.09567 12.5207 6 12.2833 6 12C6 11.7167 6.09567 11.479 6.287 11.287C6.479 11.0957 6.71667 11 7 11C7.28333 11 7.521 11.0957 7.713 11.287C7.90433 11.479 8 11.7167 8 12C8 12.2833 7.90433 12.5207 7.713 12.712C7.521 12.904 7.28333 13 7 13Z" fill="white"/>
</g>
</svg>