<svg width="28" height="28" viewBox="0 0 28 28" fill="none" xmlns="http://www.w3.org/2000/svg">
<mask id="mask0_101_886" style="mask-type:alpha" maskUnits="userSpaceOnUse" x="0" y="0" width="28" height="28">
<rect width="28" height="28" fill="#D9D9D9"/>
</mask>
<g mask="url(#mask0_101_886)">
<path d="M2.33331 23.3333V21H9.04165C8.61387 19.3472 7.80187 17.9227 6.60565 16.7265C5.4102 15.5311 3.98609 14.7194 2.33331 14.2917C2.7222 14.1944 3.10604 14.1213 3.48481 14.0723C3.86437 14.0241 4.25831 14 4.66665 14C7.2722 14 9.47915 14.9042 11.2875 16.7125C13.0958 18.5208 14 20.7278 14 23.3333H2.33331ZM16.3333 23.3333C16.3333 22.5167 16.2458 21.7051 16.0708 20.8985C15.8958 20.0912 15.643 19.3181 15.3125 18.5792C16.1291 17.1986 17.2425 16.0903 18.6526 15.2542C20.062 14.4181 21.6222 14 23.3333 14C23.7416 14 24.1356 14.0241 24.5151 14.0723C24.8939 14.1213 25.2778 14.1944 25.6666 14.2917C24.0139 14.7194 22.5944 15.5311 21.4083 16.7265C20.2222 17.9227 19.4055 19.3472 18.9583 21H25.6666V23.3333H16.3333ZM14 16.3625C14 15.0986 14.2333 13.9125 14.7 12.8042C15.1666 11.6958 15.8083 10.7186 16.625 9.87234C17.4416 9.02689 18.3991 8.35139 19.4973 7.84584C20.5963 7.34028 21.768 7.06806 23.0125 7.02917C21.9236 7.70973 20.9708 8.54584 20.1541 9.53751C19.3375 10.5292 18.7055 11.6375 18.2583 12.8625C17.4028 13.2708 16.6203 13.7713 15.911 14.364C15.2009 14.9574 14.5639 15.6236 14 16.3625ZM11.8708 14.175C11.6375 14 11.4041 13.8347 11.1708 13.6792C10.9375 13.5236 10.6944 13.3681 10.4416 13.2125C10.4416 13.0958 10.4514 12.9741 10.4708 12.8473C10.4903 12.7213 10.5 12.6 10.5 12.4833C10.5 11.0056 10.2666 9.60556 9.79998 8.28334C9.33331 6.96112 8.6722 5.75556 7.81665 4.66667C9.09998 5.19167 10.213 5.94495 11.1556 6.9265C12.0991 7.90884 12.8236 9.04167 13.3291 10.325C12.9791 10.9083 12.6778 11.5259 12.425 12.1777C12.1722 12.8287 11.9875 13.4944 11.8708 14.175Z" fill="white"/>
</g>
</svg>