<svg viewBox="0 0 79 38" fill="none" xmlns="http://www.w3.org/2000/svg">
<path d="M14.6589 10.3283H5.05835C5.10997 11.7262 5.42826 12.891 6.01324 13.8229C6.61543 14.7375 7.5187 15.1948 8.72307 15.1948C9.44569 15.1948 10.2543 15.0654 11.149 14.8065C12.0437 14.5477 12.8265 14.168 13.4975 13.6676L13.9621 14.7548C13.3427 15.2725 12.4652 15.7125 11.3297 16.0749C10.1941 16.4373 8.98115 16.6185 7.69076 16.6185C6.09067 16.6185 4.70564 16.3424 3.53568 15.7902C2.38293 15.238 1.50546 14.4614 0.903277 13.4605C0.301092 12.4423 0 11.2688 0 9.94005C0 7.80018 0.671005 6.15213 2.01302 4.99591C3.37223 3.82243 5.27342 3.23569 7.71656 3.23569C9.26504 3.23569 10.5554 3.52044 11.5878 4.08992C12.6373 4.64214 13.4115 5.39282 13.9105 6.34196C14.4094 7.27384 14.6589 8.30926 14.6589 9.44823V10.3283ZM10.2974 8.82698C10.2974 8.25749 10.2113 7.66213 10.0393 7.04087C9.88443 6.40236 9.60914 5.85877 9.21342 5.41008C8.8177 4.9614 8.31015 4.73706 7.69076 4.73706C6.96813 4.73706 6.38316 5.12534 5.93582 5.90191C5.50569 6.67847 5.2304 7.6535 5.10997 8.82698H10.2974Z" fill="#7642CB"/>
<path d="M23.0656 16.6185C21.758 16.6185 20.4934 16.446 19.2719 16.1008C18.0675 15.7384 17.1642 15.2897 16.562 14.7548L16.8459 11.6226H17.904C18.1449 12.3992 18.2653 13.2448 18.2653 14.1594C18.575 14.4355 18.9966 14.6685 19.5299 14.8583C20.0805 15.0309 20.6397 15.1172 21.2074 15.1172C22.0333 15.1172 22.7215 14.9446 23.2721 14.5995C23.8398 14.2543 24.1237 13.7366 24.1237 13.0463C24.1237 12.5459 23.8915 12.1576 23.4269 11.8815C22.9624 11.6054 22.257 11.3206 21.3107 11.0272C20.3644 10.7166 19.5988 10.4233 19.0138 10.1471C18.4288 9.85377 17.9212 9.4396 17.4911 8.90463C17.061 8.35241 16.8459 7.64487 16.8459 6.78202C16.8459 5.67757 17.4051 4.81471 18.5234 4.19346C19.659 3.55495 21.0612 3.23569 22.7301 3.23569C25.2421 3.23569 27.1433 3.77929 28.4337 4.86648L28.1498 7.7139H27.0916C26.8508 6.95459 26.7303 6.16939 26.7303 5.35831C26.4895 5.16848 26.0851 5.00454 25.5174 4.86648C24.9496 4.72843 24.3818 4.6594 23.814 4.6594C23.2119 4.6594 22.7129 4.77157 22.3172 4.99591C21.9387 5.22025 21.7494 5.58265 21.7494 6.08311C21.7494 6.5663 21.9731 6.94596 22.4204 7.22207C22.885 7.49818 23.5904 7.79155 24.5367 8.10218C25.483 8.41281 26.2658 8.72343 26.8852 9.03406C27.5046 9.32743 28.0293 9.76748 28.4595 10.3542C28.9068 10.941 29.1305 11.7003 29.1305 12.6322C29.1305 14.03 28.5455 15.0481 27.3755 15.6866C26.2228 16.3079 24.7861 16.6185 23.0656 16.6185Z" fill="#7642CB"/>
<path d="M40.6634 16.0232C39.6139 16.4201 38.2804 16.6185 36.6632 16.6185C33.2565 16.6185 31.5532 15.3501 31.5532 12.8134V4.94414H29.7466V3.46866H31.5532C32.964 3.08901 33.7985 1.93279 34.0566 0H36.5599V3.46866H40.173V4.94414H36.5599V12.8134C36.5599 13.6935 36.7492 14.2802 37.1277 14.5736C37.5234 14.8669 38.0568 15.0136 38.7278 15.0136C39.3472 15.0136 39.9063 14.9187 40.4053 14.7289L40.6634 16.0232Z" fill="#7642CB"/>
<path d="M57.8379 15.1948C58.2165 15.2811 58.8014 15.4537 59.5929 15.7125V16.0749L52.8312 16.7221V15.4278C52.2634 15.7902 51.6268 16.0836 50.9214 16.3079C50.2332 16.515 49.545 16.6185 48.8568 16.6185C47.1018 16.6185 45.7168 16.3079 44.7017 15.6866C43.7038 15.0654 43.2049 14.1767 43.2049 13.0204V4.6594C42.878 4.59037 42.3016 4.4178 41.4757 4.14169V3.77929L48.2116 3.13215V12.7616C48.2116 13.6417 48.375 14.2543 48.7019 14.5995C49.046 14.9446 49.545 15.1172 50.1988 15.1172C50.4741 15.1172 50.8612 15.0136 51.3602 14.8065C51.8763 14.5995 52.3667 14.3147 52.8312 13.9523V4.6594C52.5559 4.60763 51.9881 4.43506 51.1279 4.14169V3.77929L57.8379 3.13215V15.1948Z" fill="#7642CB"/>
<path d="M46.3246 35.6444C45.3611 37.1975 43.8212 37.9741 41.705 37.9741C39.778 37.9741 38.2897 37.4737 37.2402 36.4728C36.1907 35.4546 35.6659 33.9187 35.6659 31.8651C35.6659 30.4673 35.9068 29.2248 36.3885 28.1376C36.8875 27.0332 37.6445 26.1703 38.6596 25.549C39.6747 24.9105 40.9307 24.5913 42.4276 24.5913C43.7524 24.5913 44.7933 24.9192 45.5503 25.5749V21.0708C45.0514 20.9328 44.4836 20.7602 43.847 20.5531V20.1649L50.5571 19.5177V36.3692C51.2109 36.5418 51.7873 36.7144 52.2862 36.8869V37.1975L46.5052 38L46.3246 35.6444ZM43.2018 36.4728C43.5803 36.4728 43.9503 36.3606 44.3116 36.1362C44.6729 35.8946 44.9654 35.5322 45.189 35.049C45.4299 34.5658 45.5503 33.9791 45.5503 33.2888V27.2316C45.2062 26.852 44.8191 26.5672 44.389 26.3774C43.9589 26.1876 43.5459 26.0926 43.1502 26.0926C42.1523 26.0926 41.4899 26.6966 41.163 27.9046C40.8533 29.0954 40.6985 30.4155 40.6985 31.8651C40.6985 34.9369 41.5329 36.4728 43.2018 36.4728Z" fill="#7642CB"/>
<path d="M57.6438 37.9741C55.9404 37.9741 54.7275 37.6549 54.0049 37.0163C53.2822 36.3778 52.9209 35.4028 52.9209 34.0913C52.9209 32.6935 53.4285 31.6839 54.4436 31.0627C55.4587 30.4242 56.8265 30.1049 58.547 30.1049H61.4375V28.5259C61.4375 26.8865 60.5601 26.0668 58.8051 26.0668C58.1169 26.0668 57.3685 26.1876 56.5598 26.4292C55.7684 26.6535 55.0458 26.921 54.392 27.2316L54.1597 25.9632C55.0028 25.5145 55.9577 25.178 57.0244 24.9537C58.0911 24.7121 59.1922 24.5913 60.3278 24.5913C62.2204 24.5913 63.7086 24.9364 64.7926 25.6267C65.8937 26.2997 66.4443 27.2143 66.4443 28.3706V36.3692C67.012 36.5245 67.5884 36.6971 68.1734 36.8869V37.2493L61.4375 37.8965V36.3692C61.059 36.8351 60.5257 37.2234 59.8374 37.5341C59.1664 37.8274 58.4352 37.9741 57.6438 37.9741ZM59.5794 36.3692C59.9235 36.3692 60.2676 36.257 60.6117 36.0327C60.9558 35.7911 61.2311 35.4546 61.4375 35.0232V31.6063H59.6826C59.0804 31.6063 58.6245 31.8306 58.3148 32.2793C58.0223 32.7107 57.876 33.3061 57.876 34.0654C57.876 35.6013 58.4438 36.3692 59.5794 36.3692Z" fill="#7642CB"/>
<path d="M70.2951 21.4591L73.5727 17.861C73.7619 17.6194 74.02 17.3778 74.3469 17.1362C74.691 16.8946 75.0868 16.7738 75.5341 16.7738C76.0503 16.7738 76.4374 16.9119 76.6954 17.188C76.9707 17.4641 77.1084 17.7661 77.1084 18.094C77.1084 18.4564 76.9793 18.7929 76.7213 19.1035C76.4632 19.3969 76.0675 19.6989 75.5341 20.0095L71.0951 22.5981L70.2951 21.4591ZM69.2112 37.1717C69.7445 36.9818 70.4069 36.7747 71.1984 36.5504V26.1185C70.8715 26.0495 70.2951 25.8769 69.4692 25.6008V25.2384L76.2051 24.5913V36.5763C76.6008 36.6626 77.2632 36.861 78.1923 37.1717V37.7153H69.2112V37.1717Z" fill="#7642CB"/>
</svg>