<svg viewBox="0 0 33 32" fill="none" xmlns="http://www.w3.org/2000/svg">
<mask id="mask0_2010_6083" style="mask-type:alpha" maskUnits="userSpaceOnUse" x="0" y="0" width="33" height="32">
<rect x="0.5" width="32" height="32" fill="#D9D9D9"/>
</mask>
<g mask="url(#mask0_2010_6083)">
<path d="M8.50001 29.3333C7.76668 29.3333 7.1389 29.0722 6.61668 28.55C6.09445 28.0278 5.83334 27.4 5.83334 26.6667V13.3333C5.83334 12.6 6.09445 11.9722 6.61668 11.45C7.1389 10.9278 7.76668 10.6667 8.50001 10.6667H9.83334V8C9.83334 6.15555 10.4833 4.58333 11.7833 3.28333C13.0833 1.98333 14.6556 1.33333 16.5 1.33333C18.3445 1.33333 19.9167 1.98333 21.2167 3.28333C22.5167 4.58333 23.1667 6.15555 23.1667 8V10.6667H24.5C25.2333 10.6667 25.8611 10.9278 26.3833 11.45C26.9056 11.9722 27.1667 12.6 27.1667 13.3333V26.6667C27.1667 27.4 26.9056 28.0278 26.3833 28.55C25.8611 29.0722 25.2333 29.3333 24.5 29.3333H8.50001ZM8.50001 26.6667H24.5V13.3333H8.50001V26.6667ZM16.5 22.6667C17.2333 22.6667 17.8611 22.4056 18.3833 21.8833C18.9056 21.3611 19.1667 20.7333 19.1667 20C19.1667 19.2667 18.9056 18.6389 18.3833 18.1167C17.8611 17.5944 17.2333 17.3333 16.5 17.3333C15.7667 17.3333 15.1389 17.5944 14.6167 18.1167C14.0945 18.6389 13.8333 19.2667 13.8333 20C13.8333 20.7333 14.0945 21.3611 14.6167 21.8833C15.1389 22.4056 15.7667 22.6667 16.5 22.6667ZM12.5 10.6667H20.5V8C20.5 6.88889 20.1111 5.94444 19.3333 5.16667C18.5556 4.38889 17.6111 4 16.5 4C15.3889 4 14.4445 4.38889 13.6667 5.16667C12.8889 5.94444 12.5 6.88889 12.5 8V10.6667Z" fill="#6337AB"/>
</g>
</svg>