<svg viewBox="0 0 33 32" fill="none" xmlns="http://www.w3.org/2000/svg">
<mask id="mask0_2010_5776" style="mask-type:alpha" maskUnits="userSpaceOnUse" x="0" y="0" width="33" height="32">
<rect x="0.5" width="32" height="32" fill="#D9D9D9"/>
</mask>
<g mask="url(#mask0_2010_5776)">
<path d="M8.50001 26.6667H24.5V13.3333H8.50001V26.6667ZM16.5 22.6667C17.2333 22.6667 17.8611 22.4056 18.3833 21.8833C18.9056 21.3611 19.1667 20.7333 19.1667 20C19.1667 19.2667 18.9056 18.6389 18.3833 18.1167C17.8611 17.5945 17.2333 17.3333 16.5 17.3333C15.7667 17.3333 15.1389 17.5945 14.6167 18.1167C14.0945 18.6389 13.8333 19.2667 13.8333 20C13.8333 20.7333 14.0945 21.3611 14.6167 21.8833C15.1389 22.4056 15.7667 22.6667 16.5 22.6667ZM8.50001 29.3333C7.76668 29.3333 7.1389 29.0722 6.61668 28.55C6.09445 28.0278 5.83334 27.4 5.83334 26.6667V13.3333C5.83334 12.6 6.09445 11.9722 6.61668 11.45C7.1389 10.9278 7.76668 10.6667 8.50001 10.6667H17.8333V8.00001C17.8333 6.15557 18.4833 4.58334 19.7833 3.28334C21.0833 1.98334 22.6556 1.33334 24.5 1.33334C26.0778 1.33334 27.4556 1.81112 28.6333 2.76668C29.8111 3.72223 30.5889 4.92223 30.9667 6.36668C31.0778 6.74445 31.0056 7.11112 30.75 7.46668C30.4945 7.82223 30.1889 8.00001 29.8333 8.00001C29.4556 8.00001 29.1445 7.92223 28.9 7.76668C28.6556 7.61112 28.4778 7.35557 28.3667 7.00001C28.1222 6.15557 27.65 5.44446 26.95 4.86668C26.25 4.2889 25.4333 4.00001 24.5 4.00001C23.3889 4.00001 22.4445 4.3889 21.6667 5.16668C20.8889 5.94445 20.5 6.8889 20.5 8.00001V10.6667H24.5C25.2333 10.6667 25.8611 10.9278 26.3833 11.45C26.9056 11.9722 27.1667 12.6 27.1667 13.3333V26.6667C27.1667 27.4 26.9056 28.0278 26.3833 28.55C25.8611 29.0722 25.2333 29.3333 24.5 29.3333H8.50001Z" fill="#6337AB"/>
</g>
</svg>