<svg viewBox="0 0 33 32" fill="none" xmlns="http://www.w3.org/2000/svg">
<mask id="mask0_2010_6057" style="mask-type:alpha" maskUnits="userSpaceOnUse" x="0" y="0" width="33" height="32">
<rect x="0.5" width="32" height="32" fill="#D9D9D9"/>
</mask>
<g mask="url(#mask0_2010_6057)">
<path d="M16.5 21.3333C18.1667 21.3333 19.5834 20.75 20.75 19.5833C21.9167 18.4167 22.5 17 22.5 15.3333C22.5 13.6667 21.9167 12.25 20.75 11.0833C19.5834 9.91666 18.1667 9.33333 16.5 9.33333C14.8334 9.33333 13.4167 9.91666 12.25 11.0833C11.0834 12.25 10.5 13.6667 10.5 15.3333C10.5 17 11.0834 18.4167 12.25 19.5833C13.4167 20.75 14.8334 21.3333 16.5 21.3333ZM16.5 18.9333C15.5 18.9333 14.65 18.5833 13.95 17.8833C13.25 17.1833 12.9 16.3333 12.9 15.3333C12.9 14.3333 13.25 13.4833 13.95 12.7833C14.65 12.0833 15.5 11.7333 16.5 11.7333C17.5 11.7333 18.35 12.0833 19.05 12.7833C19.75 13.4833 20.1 14.3333 20.1 15.3333C20.1 16.3333 19.75 17.1833 19.05 17.8833C18.35 18.5833 17.5 18.9333 16.5 18.9333ZM16.5 25.3333C13.5223 25.3333 10.8056 24.5333 8.35004 22.9333C5.89449 21.3333 3.9556 19.2222 2.53338 16.6C2.42226 16.4 2.33893 16.1944 2.28338 15.9833C2.22782 15.7722 2.20004 15.5556 2.20004 15.3333C2.20004 15.1111 2.22782 14.8944 2.28338 14.6833C2.33893 14.4722 2.42226 14.2667 2.53338 14.0667C3.9556 11.4444 5.89449 9.33333 8.35004 7.73333C10.8056 6.13333 13.5223 5.33333 16.5 5.33333C19.4778 5.33333 22.1945 6.13333 24.65 7.73333C27.1056 9.33333 29.0445 11.4444 30.4667 14.0667C30.5778 14.2667 30.6612 14.4722 30.7167 14.6833C30.7723 14.8944 30.8 15.1111 30.8 15.3333C30.8 15.5556 30.7723 15.7722 30.7167 15.9833C30.6612 16.1944 30.5778 16.4 30.4667 16.6C29.0445 19.2222 27.1056 21.3333 24.65 22.9333C22.1945 24.5333 19.4778 25.3333 16.5 25.3333ZM16.5 22.6667C19.0112 22.6667 21.3167 22.0056 23.4167 20.6833C25.5167 19.3611 27.1223 17.5778 28.2334 15.3333C27.1223 13.0889 25.5167 11.3056 23.4167 9.98333C21.3167 8.66111 19.0112 7.99999 16.5 7.99999C13.9889 7.99999 11.6834 8.66111 9.58338 9.98333C7.48338 11.3056 5.87782 13.0889 4.76671 15.3333C5.87782 17.5778 7.48338 19.3611 9.58338 20.6833C11.6834 22.0056 13.9889 22.6667 16.5 22.6667Z" fill="#6337AB"/>
</g>
</svg>